<svg width="113" height="21" viewBox="0 0 113 21" fill="none" xmlns="http://www.w3.org/2000/svg">
<path d="M13.581 8.58765C13.5079 8.58765 13.4464 8.58955 13.4118 8.59339C13.3714 8.66649 13.3118 8.76456 13.2233 8.90112C14.6002 8.90112 15.8503 9.01457 17.233 9.26263L16.8426 9.63957C15.5945 9.41842 14.5579 9.32999 13.2368 9.32999C13.0445 9.32999 13.0041 9.32999 12.958 9.33189C12.9118 9.4011 12.8079 9.53571 12.7041 9.66074C12.8214 9.65305 13.0483 9.64921 13.3618 9.64921C14.4483 9.64921 15.4637 9.72995 16.5657 9.90691L16.1752 10.2857C15.3368 10.155 14.3118 10.08 13.3925 10.08C13.0656 10.08 12.6945 10.0915 12.3618 10.1107C12.2868 10.1973 12.0906 10.4088 12.031 10.4742C12.4714 10.4281 12.956 10.4069 13.5329 10.4069C14.3541 10.4069 15.1387 10.4608 15.881 10.5704L15.4906 10.9454C14.9618 10.88 14.3195 10.8415 13.7522 10.8415C12.2887 10.8415 11.1348 11.1588 9.9425 11.8877C11.0791 13.1069 12.9406 13.8781 14.7445 13.8781H14.9137L14.283 14.4878C11.681 13.9993 8.9425 12.855 6.62904 11.2876C4.40401 9.78572 3.62517 9.34152 1.88862 8.57421L1.87709 8.12802L3.05209 8.63189L3.4521 8.31457L7.28865 10.0723L7.03864 10.2723L5.06941 9.41652L4.87517 9.56842L5.89828 10.1396C6.76176 10.6204 7.41942 10.8357 8.02714 10.8357C9.35599 10.8357 10.5483 9.89343 11.3175 8.23767C11.8964 8.16263 12.5137 8.12802 13.256 8.12802C14.7791 8.12802 16.2579 8.27417 17.933 8.58765L17.5253 8.98186C16.483 8.76456 14.7118 8.58765 13.581 8.58765ZM9.85212 19.5396C4.86106 19.5396 0.812405 15.491 0.812405 10.4999C0.812405 5.50886 4.86106 1.46017 9.85212 1.46017C14.8432 1.46017 18.8918 5.50886 18.8918 10.4999C18.8918 15.491 14.8432 19.5396 9.85212 19.5396ZM9.85212 0.883202C4.5341 0.883202 0.235352 5.18186 0.235352 10.4999C0.235352 15.818 4.5341 20.1167 9.85212 20.1167C15.1702 20.1167 19.4689 15.818 19.4689 10.4999C19.4689 5.18186 15.1702 0.883202 9.85212 0.883202ZM35.2586 14.3283H40.7722V16.9111H32.2912V4.08873H35.2586V14.3283ZM47.4398 7.67902H50.2057V16.9111H47.6047V15.8487C47.22 16.5631 46.4324 17.1858 44.9853 17.1858C42.6224 17.1858 41.3951 16.1234 41.3951 13.0827V7.67902H44.161V12.9544C44.161 14.1818 44.6923 14.7312 45.8097 14.7312C46.8171 14.7312 47.4398 14.1818 47.4398 12.9544V7.67902ZM52.3307 7.33104C52.3307 5.09633 53.7412 3.90558 55.9576 3.90558C56.6721 3.90558 57.1299 4.0155 57.1299 4.0155V6.25021C57.1299 6.25021 56.7453 6.21371 56.4155 6.21371C55.5546 6.21371 55.0966 6.50678 55.0966 7.31272V7.67902H57.1299V9.9321H55.0966V16.9111H52.3307V9.9321H50.9386V7.67902H52.3307V7.33104ZM62.0021 7.67902H64.1087V9.9321H62.0021V13.5223C62.0021 14.5115 62.515 14.768 63.3211 14.768C63.6509 14.768 64.1087 14.7131 64.1087 14.7131V16.9294C64.1087 16.9294 63.4677 17.0759 62.7901 17.0759C60.5736 17.0759 59.2365 16.0685 59.2365 13.8338V9.9321H57.8442V7.67902H59.2365V4.98636H62.0021V7.67902ZM70.2325 7.40427C72.5774 7.40427 73.8046 8.46665 73.8046 11.5074V16.9111H71.0385V11.6356C71.0385 10.4084 70.5075 9.85891 69.3536 9.85891C68.3091 9.85891 67.6867 10.4084 67.6867 11.6356V16.9111H64.9206V4.1071H67.7048V8.57656C68.1811 7.89877 68.932 7.40427 70.2325 7.40427ZM80.8567 13.3208C80.8567 14.3283 79.904 15.0794 78.4389 15.0794C77.7246 15.0794 77.303 14.7497 77.303 14.1268C77.303 13.6506 77.5962 13.2476 78.5307 13.1195L80.1243 12.8996C80.3989 12.8629 80.692 12.808 80.8567 12.753V13.3208ZM79.3182 7.40432C76.5888 7.40432 75.2698 8.44846 75.1603 10.4084H77.8527C77.8893 9.89546 78.1824 9.51079 79.3182 9.51079C80.3256 9.51079 80.8019 9.84059 80.8019 10.335C80.8019 10.7748 80.5269 10.9396 79.8493 11.0128L78.091 11.196C75.7094 11.4524 74.6288 12.4416 74.6288 14.2368C74.6288 15.9037 75.6547 17.1858 77.8345 17.1858C79.3182 17.1858 80.1976 16.7096 80.9666 15.757V16.9111H83.4947V10.848C83.4947 8.30186 82.011 7.40432 79.3182 7.40432ZM89.8904 7.40427C92.2901 7.40427 93.5173 8.46665 93.5173 11.5074V16.9111H90.7512V11.6356C90.7512 10.4084 90.2202 9.85891 89.0662 9.85891C88.0218 9.85891 87.3994 10.4084 87.3994 11.6356V16.9111H84.6333V7.67907H87.2342V8.74153C87.6192 8.02706 88.4067 7.40427 89.8904 7.40427ZM99.3521 11.1227C101.697 11.4342 102.869 12.1669 102.869 14.0902C102.869 16.0319 101.495 17.1859 98.5826 17.1859C95.414 17.1859 94.2962 15.9221 94.2415 14.0718H96.9709C97.0442 14.7497 97.5201 15.0794 98.5826 15.0794C99.6633 15.0794 100.103 14.8229 100.103 14.3101C100.103 13.8338 99.7366 13.614 98.7844 13.4858L97.8132 13.3575C95.7799 13.0828 94.6079 12.2951 94.6079 10.4633C94.6079 8.70485 95.9084 7.40427 98.6378 7.40427C101.166 7.40427 102.521 8.41173 102.649 10.4084H99.9564C99.865 9.87728 99.5719 9.54747 98.6378 9.54747C97.7218 9.54747 97.374 9.85891 97.374 10.262C97.374 10.6648 97.5938 10.8846 98.3813 10.9946L99.3521 11.1227ZM109.793 13.321C109.793 14.3284 108.84 15.0794 107.375 15.0794C106.661 15.0794 106.239 14.7497 106.239 14.1268C106.239 13.6506 106.533 13.2476 107.467 13.1195L109.06 12.8996C109.335 12.8631 109.628 12.808 109.793 12.753V13.321ZM108.254 7.40432C105.525 7.40432 104.206 8.44846 104.096 10.4084H106.789C106.826 9.89546 107.119 9.51092 108.254 9.51092C109.262 9.51092 109.738 9.84059 109.738 10.3352C109.738 10.7748 109.463 10.9396 108.786 11.0128L107.027 11.196C104.646 11.4525 103.565 12.4417 103.565 14.2368C103.565 15.9037 104.591 17.1858 106.77 17.1858C108.254 17.1858 109.134 16.7096 109.903 15.757V16.9111H112.431V10.848C112.431 8.30199 110.947 7.40432 108.254 7.40432Z" fill="#101010"/>
</svg>
