<svg width="114" height="21" viewBox="0 0 114 21" fill="none" xmlns="http://www.w3.org/2000/svg">
<path d="M14.248 8.58765C14.1749 8.58765 14.1134 8.58955 14.0788 8.59339C14.0384 8.66649 13.9788 8.76456 13.8903 8.90112C15.2672 8.90112 16.5173 9.01457 17.9 9.26263L17.5096 9.63957C16.2615 9.41842 15.2249 9.32999 13.9038 9.32999C13.7115 9.32999 13.6711 9.32999 13.6249 9.33189C13.5788 9.4011 13.4749 9.53571 13.3711 9.66074C13.4884 9.65305 13.7153 9.64921 14.0288 9.64921C15.1153 9.64921 16.1307 9.72995 17.2327 9.90691L16.8422 10.2857C16.0038 10.155 14.9788 10.08 14.0595 10.08C13.7326 10.08 13.3615 10.0915 13.0288 10.1107C12.9538 10.1973 12.7576 10.4088 12.698 10.4742C13.1384 10.4281 13.623 10.4069 14.1999 10.4069C15.0211 10.4069 15.8057 10.4608 16.548 10.5704L16.1576 10.9454C15.6288 10.88 14.9865 10.8415 14.4192 10.8415C12.9557 10.8415 11.8018 11.1588 10.6095 11.8877C11.746 13.1069 13.6076 13.8781 15.4115 13.8781H15.5807L14.95 14.4878C12.348 13.9993 9.6095 12.855 7.29603 11.2876C5.071 9.78572 4.29216 9.34152 2.55561 8.57421L2.54408 8.12802L3.71908 8.63189L4.11909 8.31457L7.95564 10.0723L7.70563 10.2723L5.7364 9.41652L5.54216 9.56842L6.56527 10.1396C7.42875 10.6204 8.08641 10.8357 8.69414 10.8357C10.023 10.8357 11.2153 9.89343 11.9845 8.23767C12.5634 8.16263 13.1807 8.12802 13.923 8.12802C15.4461 8.12802 16.9249 8.27417 18.6 8.58765L18.1923 8.98186C17.15 8.76456 15.3788 8.58765 14.248 8.58765ZM10.5191 19.5396C5.52805 19.5396 1.4794 15.491 1.4794 10.4999C1.4794 5.50886 5.52805 1.46017 10.5191 1.46017C15.5102 1.46017 19.5588 5.50886 19.5588 10.4999C19.5588 15.491 15.5102 19.5396 10.5191 19.5396ZM10.5191 0.883202C5.2011 0.883202 0.902344 5.18186 0.902344 10.4999C0.902344 15.818 5.2011 20.1167 10.5191 20.1167C15.8372 20.1167 20.1359 15.818 20.1359 10.4999C20.1359 5.18186 15.8372 0.883202 10.5191 0.883202ZM35.9256 14.3283H41.4392V16.9111H32.9582V4.08873H35.9256V14.3283ZM48.1068 7.67902H50.8727V16.9111H48.2717V15.8487C47.887 16.5631 47.0994 17.1858 45.6522 17.1858C43.2894 17.1858 42.0621 16.1234 42.0621 13.0827V7.67902H44.828V12.9544C44.828 14.1818 45.3593 14.7312 46.4766 14.7312C47.4841 14.7312 48.1068 14.1818 48.1068 12.9544V7.67902ZM52.9977 7.33104C52.9977 5.09633 54.4082 3.90558 56.6246 3.90558C57.3391 3.90558 57.7969 4.0155 57.7969 4.0155V6.25021C57.7969 6.25021 57.4123 6.21371 57.0825 6.21371C56.2216 6.21371 55.7636 6.50678 55.7636 7.31272V7.67902H57.7969V9.9321H55.7636V16.9111H52.9977V9.9321H51.6056V7.67902H52.9977V7.33104ZM62.6691 7.67902H64.7756V9.9321H62.6691V13.5223C62.6691 14.5115 63.182 14.768 63.9881 14.768C64.3179 14.768 64.7756 14.7131 64.7756 14.7131V16.9294C64.7756 16.9294 64.1347 17.0759 63.4571 17.0759C61.2406 17.0759 59.9035 16.0685 59.9035 13.8338V9.9321H58.5111V7.67902H59.9035V4.98636H62.6691V7.67902ZM70.8995 7.40427C73.2444 7.40427 74.4716 8.46665 74.4716 11.5074V16.9111H71.7055V11.6356C71.7055 10.4084 71.1745 9.85891 70.0206 9.85891C68.9761 9.85891 68.3537 10.4084 68.3537 11.6356V16.9111H65.5876V4.1071H68.3718V8.57656C68.8481 7.89877 69.599 7.40427 70.8995 7.40427ZM81.5237 13.3208C81.5237 14.3283 80.571 15.0794 79.1059 15.0794C78.3916 15.0794 77.97 14.7497 77.97 14.1268C77.97 13.6506 78.2632 13.2476 79.1977 13.1195L80.7913 12.8996C81.0659 12.8629 81.359 12.808 81.5237 12.753V13.3208ZM79.9852 7.40432C77.2558 7.40432 75.9368 8.44846 75.8273 10.4084H78.5196C78.5563 9.89546 78.8494 9.51079 79.9852 9.51079C80.9926 9.51079 81.4689 9.84059 81.4689 10.335C81.4689 10.7748 81.1939 10.9396 80.5163 11.0128L78.758 11.196C76.3764 11.4524 75.2958 12.4416 75.2958 14.2368C75.2958 15.9037 76.3217 17.1858 78.5015 17.1858C79.9852 17.1858 80.8646 16.7096 81.6336 15.757V16.9111H84.1617V10.848C84.1617 8.30186 82.678 7.40432 79.9852 7.40432ZM90.5574 7.40427C92.9571 7.40427 94.1843 8.46665 94.1843 11.5074V16.9111H91.4182V11.6356C91.4182 10.4084 90.8872 9.85891 89.7332 9.85891C88.6888 9.85891 88.0663 10.4084 88.0663 11.6356V16.9111H85.3003V7.67907H87.9012V8.74153C88.2862 8.02706 89.0737 7.40427 90.5574 7.40427ZM100.019 11.1227C102.364 11.4342 103.536 12.1669 103.536 14.0902C103.536 16.0319 102.162 17.1859 99.2496 17.1859C96.081 17.1859 94.9632 15.9221 94.9085 14.0718H97.6379C97.7112 14.7497 98.1871 15.0794 99.2496 15.0794C100.33 15.0794 100.77 14.8229 100.77 14.3101C100.77 13.8338 100.404 13.614 99.4514 13.4858L98.4802 13.3575C96.4469 13.0828 95.2749 12.2951 95.2749 10.4633C95.2749 8.70485 96.5754 7.40427 99.3048 7.40427C101.833 7.40427 103.188 8.41173 103.316 10.4084H100.623C100.532 9.87728 100.239 9.54747 99.3048 9.54747C98.3888 9.54747 98.041 9.85891 98.041 10.262C98.041 10.6648 98.2608 10.8846 99.0483 10.9946L100.019 11.1227ZM110.46 13.321C110.46 14.3284 109.507 15.0794 108.042 15.0794C107.328 15.0794 106.906 14.7497 106.906 14.1268C106.906 13.6506 107.2 13.2476 108.134 13.1195L109.727 12.8996C110.002 12.8631 110.295 12.808 110.46 12.753V13.321ZM108.921 7.40432C106.192 7.40432 104.873 8.44846 104.763 10.4084H107.456C107.493 9.89546 107.786 9.51092 108.921 9.51092C109.929 9.51092 110.405 9.84059 110.405 10.3352C110.405 10.7748 110.13 10.9396 109.453 11.0128L107.694 11.196C105.313 11.4525 104.232 12.4417 104.232 14.2368C104.232 15.9037 105.258 17.1858 107.437 17.1858C108.921 17.1858 109.801 16.7096 110.57 15.757V16.9111H113.098V10.848C113.098 8.30199 111.614 7.40432 108.921 7.40432Z" fill="#868686"/>
</svg>
