<svg width="50" height="25" viewBox="0 0 50 25" fill="none" xmlns="http://www.w3.org/2000/svg">
<path fill-rule="evenodd" clip-rule="evenodd" d="M49.24 12.2573C49.1275 8.00605 44.5866 3.76307 37.8118 1.58011C32.6059 -0.0979587 19.5028 -0.551184 14.2497 0.765132C9.08283 2.06006 4.62811 4.37668 2.23349 7.01584C0.382018 9.05566 0.0917969 9.7744 0.0917969 12.3227C0.0917969 14.7795 0.403581 15.6236 1.96367 17.3925C4.61995 20.4035 8.12009 22.2645 13.8324 23.7026C20.3846 25.3516 31.681 25.0676 37.8118 23.0991C44.7171 20.8817 49.3507 16.4855 49.24 12.2573ZM20.0594 9.92706C19.4271 8.90894 20.3111 5.46311 21.634 3.78861C22.6719 2.47527 23.3247 2.24361 25.9844 2.24361C29.5359 2.24361 35.951 3.29322 36.683 3.99414C37.3625 4.64458 32.8518 7.14712 27.6564 9.00219C22.9965 10.666 20.6928 10.9464 20.0594 9.92706ZM2.47884 12.3666C2.47884 9.03962 6.95512 5.42272 13.2205 3.68763C14.6973 3.27837 15.9829 2.92018 16.0773 2.89048C16.1717 2.86137 15.2014 4.3743 13.9204 6.25314C12.6401 8.13198 10.6126 11.6069 9.41501 13.9752C8.21799 16.3435 7.00058 18.2817 6.71036 18.2817C5.52383 18.2817 2.47884 14.0251 2.47884 12.3666ZM35.2185 18.4451C36.5023 16.5585 38.5269 13.0765 39.7169 10.7082C40.9063 8.33929 42.1174 6.40164 42.4076 6.40164C43.6058 6.40164 46.6391 10.6595 46.6391 12.3417C46.6391 15.6972 40.9192 20.024 34.5395 21.4941L32.8839 21.8761L35.2185 18.4451ZM12.34 20.6809C11.9845 20.1089 18.0919 16.8205 22.3281 15.3028C24.0473 14.6868 26.2595 14.2366 27.2444 14.3019C28.7689 14.4029 29.0609 14.688 29.2118 16.2217C29.3243 17.3581 28.8762 18.7837 27.9985 20.0828C26.7729 21.8986 26.2618 22.1647 23.6918 22.3281C20.4836 22.5318 12.7963 21.4163 12.34 20.6809Z" fill="#101010"/>
</svg>
