<svg width="50" height="25" viewBox="0 0 50 25" fill="none" xmlns="http://www.w3.org/2000/svg">
<path fill-rule="evenodd" clip-rule="evenodd" d="M49.5731 12.2573C49.4607 8.00605 44.9197 3.76307 38.145 1.58011C32.939 -0.0979587 19.836 -0.551184 14.5828 0.765132C9.41596 2.06006 4.96124 4.37668 2.56662 7.01584C0.715148 9.05566 0.424927 9.7744 0.424927 12.3227C0.424927 14.7795 0.736711 15.6236 2.2968 17.3925C4.95308 20.4035 8.45322 22.2645 14.1656 23.7026C20.7177 25.3516 32.0142 25.0676 38.145 23.0991C45.0502 20.8817 49.6839 16.4855 49.5731 12.2573ZM20.3925 9.92706C19.7602 8.90894 20.6443 5.46311 21.9672 3.78861C23.0051 2.47527 23.6578 2.24361 26.3176 2.24361C29.869 2.24361 36.2842 3.29322 37.0161 3.99414C37.6956 4.64458 33.185 7.14712 27.9895 9.00219C23.3297 10.666 21.026 10.9464 20.3925 9.92706ZM2.81197 12.3666C2.81197 9.03962 7.28825 5.42272 13.5537 3.68763C15.0304 3.27837 16.316 2.92018 16.4104 2.89048C16.5048 2.86137 15.5345 4.3743 14.2536 6.25314C12.9732 8.13198 10.9457 11.6069 9.74814 13.9752C8.55112 16.3435 7.33371 18.2817 7.04349 18.2817C5.85696 18.2817 2.81197 14.0251 2.81197 12.3666ZM35.5516 18.4451C36.8355 16.5585 38.86 13.0765 40.05 10.7082C41.2395 8.33929 42.4505 6.40164 42.7407 6.40164C43.9389 6.40164 46.9722 10.6595 46.9722 12.3417C46.9722 15.6972 41.2523 20.024 34.8727 21.4941L33.217 21.8761L35.5516 18.4451ZM12.6731 20.6809C12.3176 20.1089 18.4251 16.8205 22.6612 15.3028C24.3804 14.6868 26.5926 14.2366 27.5775 14.3019C29.1021 14.4029 29.394 14.688 29.545 16.2217C29.6574 17.3581 29.2093 18.7837 28.3316 20.0828C27.1061 21.8986 26.595 22.1647 24.0249 22.3281C20.8168 22.5318 13.1294 21.4163 12.6731 20.6809Z" fill="#868686"/>
</svg>
