<svg width="78" height="15" viewBox="0 0 78 15" fill="none" xmlns="http://www.w3.org/2000/svg">
<path fill-rule="evenodd" clip-rule="evenodd" d="M36.4981 0.605469L33.7659 14.3002H36.8689L39.601 0.605469H36.4981Z" fill="#868686"/>
<path fill-rule="evenodd" clip-rule="evenodd" d="M5.83508 0.605469H2.73213L0 14.3002H3.10295L5.83508 0.605469Z" fill="#868686"/>
<path fill-rule="evenodd" clip-rule="evenodd" d="M35.4922 0.605469H32.3892L26.6138 10.1104L24.7895 0.605469H21.6866L24.3122 14.3002H27.1679L35.4922 0.605469Z" fill="#868686"/>
<path fill-rule="evenodd" clip-rule="evenodd" d="M51.203 0.605469H41.0757L40.5387 3.48252H44.0636L41.9026 14.3002H45.0056L47.1623 3.48252H50.6702L51.203 0.605469Z" fill="#868686"/>
<path fill-rule="evenodd" clip-rule="evenodd" d="M17.8292 0.605469L16.022 9.66711L11.2738 0.605469H8.5928L5.86493 14.3002H8.8528L10.6643 5.21727L15.3997 14.3002H18.0892L20.8171 0.605469H17.8292Z" fill="#868686"/>
<path fill-rule="evenodd" clip-rule="evenodd" d="M58.581 0.605469H52.8908L50.1587 14.3002H53.2787L55.4098 3.48252H58.0908C58.6301 3.45735 59.1564 3.65279 59.5485 4.02383C59.849 4.34807 59.995 4.78613 59.9492 5.2258C59.8171 6.60252 58.7344 7.2376 57.3321 7.2376H55.0689L57.9843 14.3002H61.0872L59.1479 9.6117C61.3904 9.32321 63.0727 7.41861 63.082 5.1576C63.2098 2.50219 61.2577 0.605469 58.5682 0.605469" fill="#868686"/>
<path d="M63.6701 7.45499C63.9062 3.46992 67.2268 0.37062 71.2187 0.409418C75.3488 0.409418 78.1364 3.5422 77.9105 7.45073C77.6743 11.4358 74.3538 14.5351 70.3619 14.4963C66.2318 14.4963 63.4442 11.3635 63.6744 7.45499H63.6701ZM75.0249 7.45499C75.1263 6.34359 74.7477 5.24185 73.9846 4.42746C73.2216 3.61308 72.1468 3.16374 71.0311 3.1927C68.6385 3.18352 66.6652 5.06464 66.56 7.45499C66.4586 8.5664 66.8371 9.66814 67.6002 10.4825C68.3633 11.2969 69.4381 11.7462 70.5537 11.7173C72.948 11.7288 74.9239 9.847 75.0291 7.45499" fill="#868686"/>
</svg>
