<svg width="79" height="15" viewBox="0 0 79 15" fill="none" xmlns="http://www.w3.org/2000/svg">
<path fill-rule="evenodd" clip-rule="evenodd" d="M36.8308 0.605713L34.0986 14.3005H37.2016L39.9337 0.605713H36.8308Z" fill="#101010"/>
<path fill-rule="evenodd" clip-rule="evenodd" d="M6.16809 0.605713H3.06514L0.333008 14.3005H3.43596L6.16809 0.605713Z" fill="#101010"/>
<path fill-rule="evenodd" clip-rule="evenodd" d="M35.8251 0.605713H32.7222L26.9467 10.1106L25.1225 0.605713H22.0195L24.6451 14.3005H27.5008L35.8251 0.605713Z" fill="#101010"/>
<path fill-rule="evenodd" clip-rule="evenodd" d="M51.5363 0.605713H41.4091L40.8721 3.48276H44.397L42.236 14.3005H45.339L47.4957 3.48276H51.0035L51.5363 0.605713Z" fill="#101010"/>
<path fill-rule="evenodd" clip-rule="evenodd" d="M18.1625 0.605713L16.3553 9.66735L11.6071 0.605713H8.92611L6.19824 14.3005H9.18611L10.9976 5.21752L15.733 14.3005H18.4225L21.1504 0.605713H18.1625Z" fill="#101010"/>
<path fill-rule="evenodd" clip-rule="evenodd" d="M58.9135 0.605713H53.2233L50.4912 14.3005H53.6112L55.7424 3.48276H58.4233C58.9626 3.4576 59.4889 3.65303 59.8811 4.02407C60.1815 4.34831 60.3275 4.78638 60.2817 5.22604C60.1496 6.60276 59.0669 7.23784 57.6647 7.23784H55.4014L58.3168 14.3005H61.4197L59.4804 9.61194C61.7229 9.32345 63.4052 7.41886 63.4145 5.15784C63.5424 2.50243 61.5902 0.605713 58.9007 0.605713" fill="#101010"/>
<path d="M64.0031 7.45511C64.2392 3.47004 67.5598 0.370742 71.5517 0.40954C75.6818 0.40954 78.4694 3.54233 78.2435 7.45085C78.0074 11.4359 74.6868 14.5352 70.6949 14.4964C66.5648 14.4964 63.7772 11.3636 64.0074 7.45511H64.0031ZM75.3579 7.45511C75.4593 6.34371 75.0807 5.24197 74.3177 4.42759C73.5546 3.6132 72.4798 3.16386 71.3641 3.19282C68.9715 3.18364 66.9982 5.06476 66.893 7.45511C66.7916 8.56652 67.1701 9.66826 67.9332 10.4826C68.6963 11.297 69.7711 11.7464 70.8867 11.7174C73.281 11.7289 75.2569 9.84713 75.3622 7.45511" fill="#101010"/>
</svg>
