<svg width="76" height="17" viewBox="0 0 76 17" fill="none" xmlns="http://www.w3.org/2000/svg">
<path fill-rule="evenodd" clip-rule="evenodd" d="M9.51641 0.54377C7.83031 0.370672 6.13057 0.710786 4.65085 1.51736C3.17112 2.32394 1.98404 3.55738 1.25278 5.04814C0.521515 6.53891 0.281964 8.21383 0.567051 9.84267C0.852138 11.4715 1.64787 12.9743 2.84487 14.1445C4.04187 15.3147 5.58138 16.0949 7.25179 16.3778C8.92219 16.6606 10.6415 16.4324 12.1734 15.7243C13.7053 15.0162 14.9745 13.8631 15.8067 12.4235C16.6389 10.9838 16.9931 9.32835 16.8207 7.68455C16.631 5.85736 15.8011 4.14968 14.4707 2.84905C13.1403 1.54843 11.3906 0.734308 9.51641 0.54377ZM9.25049 12.7304C8.34365 12.8489 7.42148 12.6876 6.6136 12.269C5.80571 11.8504 5.15272 11.1956 4.74639 10.3966C4.34006 9.59767 4.20083 8.69471 4.34826 7.81464C4.49569 6.93457 4.92237 6.12165 5.56833 5.49012C6.21429 4.8586 7.04706 4.44022 7.94961 4.29378C8.85215 4.14734 9.77908 4.28021 10.6001 4.67372C11.4212 5.06722 12.0951 5.70157 12.5271 6.48762C12.9592 7.27367 13.1276 8.1719 13.0088 9.05607C12.8841 9.98606 12.4483 10.8501 11.7689 11.5143C11.0895 12.1785 10.2043 12.6059 9.25049 12.7304ZM21.21 0.860181C20.9254 0.860845 20.6445 0.923344 20.3878 1.04313C20.1311 1.16291 19.905 1.33697 19.7259 1.55264C19.5469 1.76831 19.4195 2.02016 19.3529 2.28986C19.2864 2.55957 19.2823 2.84034 19.3411 3.11176C19.5212 3.99107 20.3639 4.59187 21.2819 4.59187H26.6095L18.3186 15.2849C18.2573 15.3639 18.2198 15.4579 18.2102 15.5565C18.2006 15.655 18.2194 15.7542 18.2645 15.843C18.3096 15.9317 18.3791 16.0065 18.4653 16.0589C18.5515 16.1113 18.651 16.1392 18.7525 16.1396H31.7575C32.6749 16.1396 33.5183 15.539 33.6983 14.6595C33.7571 14.3881 33.7531 14.1074 33.6866 13.8377C33.6201 13.568 33.4927 13.3162 33.3138 13.1005C33.1349 12.8848 32.9089 12.7107 32.6522 12.5909C32.3956 12.471 32.1148 12.4084 31.8302 12.4076H25.339L33.6235 1.72287C33.6854 1.64317 33.7233 1.54822 33.7329 1.44869C33.7426 1.34916 33.7236 1.24898 33.678 1.15939C33.6325 1.0698 33.5623 0.994349 33.4752 0.941498C33.3881 0.888647 33.2877 0.860489 33.1851 0.860181H21.21ZM73.1771 0.903225C72.7465 1.00301 72.3638 1.243 72.0922 1.58354C71.8205 1.92408 71.6763 2.34475 71.6833 2.77602V8.98916L61.3533 0.977533C61.2723 0.914863 61.1747 0.875753 61.0719 0.864703C60.9691 0.853653 60.8652 0.871112 60.7721 0.915071C60.6791 0.959029 60.6006 1.0277 60.5458 1.11319C60.491 1.19868 60.4621 1.29751 60.4623 1.39831V14.2271C60.4553 14.6584 60.5995 15.0791 60.8712 15.4196C61.1428 15.7601 61.5255 16.0001 61.9561 16.0999C62.2357 16.1598 62.5255 16.1579 62.8042 16.0941C63.0829 16.0303 63.3434 15.9064 63.5664 15.7314C63.7893 15.5565 63.9692 15.3349 64.0926 15.0832C64.2161 14.8315 64.2799 14.5559 64.2795 14.2769V8.01002L74.6097 16.0218C74.6907 16.0844 74.7882 16.1235 74.891 16.1346C74.9937 16.1456 75.0976 16.1281 75.1906 16.0842C75.2837 16.0403 75.3621 15.9716 75.4169 15.8862C75.4717 15.8007 75.5006 15.7019 75.5003 15.6012V2.72557C75.5006 2.44664 75.4367 2.17119 75.3132 1.91954C75.1898 1.6679 75.0099 1.44646 74.787 1.27158C74.564 1.09669 74.3036 0.972798 74.025 0.909047C73.7463 0.845296 73.4566 0.843306 73.1771 0.903225ZM46.2804 4.23468C50.6497 4.23468 53.9145 6.48506 53.9145 8.49801C53.9145 10.511 50.6497 12.7613 46.2804 12.7613C41.9111 12.7613 38.6463 10.511 38.6463 8.49801C38.6463 6.48506 41.9111 4.23468 46.2804 4.23468ZM46.2804 0.503142C39.956 0.503142 34.8291 4.08259 34.8291 8.49801C34.8291 12.9134 39.956 16.4929 46.2804 16.4929C52.6048 16.4929 57.7315 12.9134 57.7315 8.49801C57.7315 4.08259 52.6047 0.503142 46.2804 0.503142Z" fill="#101010"/>
</svg>
