<svg width="92" height="25" viewBox="0 0 92 25" fill="none" xmlns="http://www.w3.org/2000/svg">
<path d="M43.4195 3.21589C42.8342 2.33415 42.036 1.65988 40.9186 1.19307C39.8544 0.726268 38.5774 0.518799 37.1407 0.518799H31.3408V16.7532H34.6398V12.1371H37.1407C38.5774 12.1371 39.8544 11.8777 40.9186 11.4628C41.9828 10.996 42.8342 10.3217 43.4195 9.43996C44.0048 8.55822 44.2708 7.52087 44.2708 6.32793C44.2708 5.13498 43.9516 4.09764 43.4195 3.21589ZM40.9186 6.32793C40.9186 7.31341 40.5994 8.03955 39.9076 8.61009C39.2691 9.12876 38.2581 9.38809 36.9811 9.38809H34.5866V3.26776H36.9811C38.2581 3.26776 39.2691 3.5271 39.9076 4.04577C40.5994 4.56444 40.9186 5.34245 40.9186 6.32793Z" fill="#101010"/>
<path d="M49.1125 14.0043V9.8549H55.9766V7.1578H49.1125V3.21589H56.9876V0.518799H45.8135V16.7532H57.3068V14.0043H49.1125Z" fill="#101010"/>
<path d="M70.0771 13.1225C69.1193 13.7449 68.0552 14.1079 66.8313 14.1079C65.7139 14.1079 64.7561 13.8486 63.8516 13.3818C63.0002 12.915 62.3085 12.2407 61.8296 11.4108C61.3507 10.581 61.0847 9.64735 61.0847 8.55814C61.0847 7.5208 61.3507 6.53532 61.8296 5.70544C62.3085 4.87557 63.0002 4.2013 63.8516 3.73449C64.7029 3.26769 65.7139 3.00835 66.8313 3.00835C67.9487 3.00835 69.0129 3.31955 69.8643 3.83822L71.7798 1.60793C71.3542 1.29673 70.8753 1.08926 70.3964 0.881793C69.279 0.414988 68.0019 0.20752 66.6717 0.20752C65.0222 0.20752 63.4791 0.57059 62.0956 1.29673C60.7654 2.02287 59.648 3.00835 58.903 4.25316C58.1049 5.49798 57.7324 6.95026 57.7324 8.55814C57.7324 10.166 58.1049 11.5664 58.903 12.8631C59.648 14.1079 60.7654 15.1453 62.0956 15.8196C63.4259 16.5457 64.969 16.9088 66.6717 16.9088C68.0019 16.9088 69.279 16.6494 70.3964 16.2345C70.9285 16.027 71.4606 15.7158 71.8863 15.4046L70.0771 13.1225Z" fill="#101010"/>
<path d="M88.4882 4.30492C87.6901 3.06011 86.6259 2.02276 85.2956 1.34849C83.9654 0.622348 82.4223 0.259277 80.7195 0.259277C79.0168 0.259277 77.4737 0.622348 76.1435 1.34849C74.8132 2.07463 73.6958 3.06011 72.9509 4.35679C72.1527 5.6016 71.7803 7.05388 71.7803 8.6099C71.7803 10.1659 72.1527 11.6182 72.9509 12.863C73.749 14.1597 74.8132 15.1452 76.1435 15.8713C77.4737 16.5975 79.0168 16.9605 80.7195 16.9605C82.4223 16.9605 83.9654 16.5975 85.2956 15.8713C86.6791 15.1452 87.7433 14.1597 88.4882 12.9149C89.2864 11.6701 89.6588 10.2178 89.6588 8.6099C89.6588 7.05388 89.2864 5.6016 88.4882 4.30492ZM86.3598 8.6099C86.3598 9.64724 86.0938 10.5809 85.6149 11.4626C85.136 12.2925 84.4442 12.9667 83.5929 13.4335C82.7415 13.9004 81.7837 14.1597 80.7195 14.1597C79.6553 14.1597 78.6976 13.9004 77.8462 13.4335C76.9949 12.9667 76.3031 12.2925 75.8242 11.4626C75.3453 10.6327 75.0793 9.69911 75.0793 8.6099C75.0793 7.57256 75.3453 6.63895 75.8242 5.7572C76.3031 4.92733 76.9949 4.25305 77.8462 3.78625C78.6976 3.31944 79.6553 3.06011 80.7195 3.06011C81.7837 3.06011 82.7415 3.31944 83.5929 3.78625C84.4442 4.25305 85.136 4.92733 85.6149 5.7572C86.0938 6.63895 86.3598 7.57256 86.3598 8.6099Z" fill="#101010"/>
<path d="M34.1077 21.8362H32.405V24.6889H31.3408V21.0063H34.1077V21.8362Z" fill="#101010"/>
<path d="M40.7058 23.9628H39.1095L38.7903 24.6889H37.6729L39.3756 21.0063H40.4398L42.1425 24.6889H41.0251L40.7058 23.9628ZM40.3866 23.1848L39.9077 21.9918L39.4288 23.1848H40.3866Z" fill="#101010"/>
<path d="M48.7401 21.1619C49.0062 21.2657 49.1658 21.4213 49.3254 21.6288C49.485 21.8362 49.5382 22.0956 49.5382 22.3549C49.5382 22.6142 49.485 22.8736 49.3254 23.081C49.1658 23.2885 49.0062 23.4441 48.7401 23.5478C48.4741 23.6516 48.208 23.7034 47.8355 23.7034H47.197V24.6889H46.1328V21.0063H47.8887C48.1548 21.0063 48.4741 21.0582 48.7401 21.1619ZM48.2612 22.7698C48.3676 22.6661 48.4208 22.5624 48.4208 22.3549C48.4208 22.1993 48.3676 22.0437 48.2612 21.94C48.1548 21.8362 47.9952 21.7844 47.7823 21.7844H47.197V22.8736H47.7823C47.9952 22.8736 48.1548 22.8736 48.2612 22.7698Z" fill="#101010"/>
<path d="M56.2957 23.9628H54.6994L54.3801 24.6889H53.2627L54.9654 21.0063H56.0296L57.7323 24.6889H56.6149L56.2957 23.9628ZM55.9764 23.1848L55.4975 21.9918L55.0186 23.1848H55.9764Z" fill="#101010"/>
<path d="M65.7145 21.0063V24.6889H64.6503V23.2366H63.2136V24.6889H62.1494V21.0063H63.2136V22.3549H64.6503V21.0063H65.7145Z" fill="#101010"/>
<path d="M73.5363 21.8362H72.3657V24.6889H71.3015V21.8362H70.1309V21.0063H73.5363V21.8362Z" fill="#101010"/>
<path d="M77.7393 21.0063H78.7502V23.1848L80.3465 21.0063H81.3575V24.6889H80.2933V22.5105L78.7502 24.6889H77.7393V21.0063Z" fill="#101010"/>
<path d="M88.4352 21.0063V24.6889H87.371V23.7553H86.7857L86.1472 24.6889H85.0298L85.7747 23.5997C85.5087 23.496 85.349 23.3404 85.1894 23.1329C85.083 22.9254 84.9766 22.6661 84.9766 22.4068C84.9766 22.0956 85.0298 21.8881 85.1894 21.6806C85.349 21.4732 85.5087 21.3176 85.7747 21.2138C86.0408 21.1101 86.3068 21.0582 86.6793 21.0582H88.4352V21.0063ZM86.094 22.3549C86.094 22.5624 86.1472 22.6661 86.2536 22.7698C86.36 22.8736 86.5197 22.9254 86.7325 22.9254H87.371V21.7844H86.7325C86.3068 21.8362 86.094 21.9918 86.094 22.3549Z" fill="#101010"/>
<path d="M26.3388 16.805L26.1792 15.3008C25.8599 12.4481 24.9021 10.166 23.4655 8.40248C22.1352 6.7946 20.4325 5.60165 18.3041 4.77178V0.466797L16.761 0.622399C13.8345 0.933602 11.4932 1.86721 9.68409 3.26763C8.03458 4.56431 6.81075 6.22406 5.95939 8.29875H1.54297L1.7026 9.8029C2.02186 12.6556 2.97964 14.9378 4.41631 16.7012C5.74655 18.3091 7.44927 19.5021 9.57767 20.3319V24.6369L11.1208 24.4813C14.0473 24.1701 16.3885 23.2365 18.1977 21.8361C19.8472 20.5394 21.071 18.8797 21.9224 16.805H26.3388ZM16.5482 19.7614C15.4308 20.6431 14.0473 21.2656 12.3446 21.6286V12.8112H9.57767V17.5311C8.35384 16.9087 7.34285 16.1307 6.5447 15.1452C5.64013 14.056 5.00162 12.7075 4.62915 11.0477H13.728V8.40248H8.88594C9.52446 7.20954 10.3226 6.22406 11.3336 5.44605C12.451 4.56431 13.8345 3.9419 15.5372 3.57883V12.5519H18.2509V7.72821C19.4747 8.35061 20.4857 9.12862 21.2839 10.1141C22.1884 11.2033 22.8269 12.5519 23.1994 14.2116H14.2069V16.8568H18.9426C18.3573 17.9979 17.5592 18.9834 16.5482 19.7614Z" fill="#101010"/>
</svg>
