<svg width="83" height="23" viewBox="0 0 83 23" fill="none" xmlns="http://www.w3.org/2000/svg">
<path d="M39.187 2.81515C38.6393 1.99003 37.8924 1.35906 36.8468 0.922233C35.8509 0.485405 34.6559 0.29126 33.3115 0.29126H27.884V15.4831H30.9712V11.1634H33.3115C34.6559 11.1634 35.8509 10.9207 36.8468 10.5324C37.8426 10.0956 38.6393 9.46464 39.187 8.63952C39.7347 7.8144 39.9837 6.84367 39.9837 5.72733C39.9837 4.611 39.6849 3.64027 39.187 2.81515ZM36.8468 5.72733C36.8468 6.64953 36.548 7.32904 35.9007 7.86294C35.3032 8.3483 34.3571 8.59098 33.1621 8.59098H30.9214V2.86369H33.1621C34.3571 2.86369 35.3032 3.10637 35.9007 3.59173C36.548 4.0771 36.8468 4.80514 36.8468 5.72733Z" fill="#868686"/>
<path d="M44.5149 12.9107V9.02781H50.9382V6.50392H44.5149V2.81515H51.8842V0.29126H41.4277V15.4831H52.183V12.9107H44.5149Z" fill="#868686"/>
<path d="M64.1332 12.0856C63.237 12.668 62.2411 13.0078 61.0959 13.0078C60.0502 13.0078 59.154 12.7651 58.3075 12.3282C57.5108 11.8914 56.8635 11.2604 56.4153 10.4839C55.9672 9.70728 55.7183 8.83362 55.7183 7.81436C55.7183 6.84363 55.9672 5.92144 56.4153 5.14486C56.8635 4.36827 57.5108 3.7373 58.3075 3.30047C59.1042 2.86365 60.0502 2.62096 61.0959 2.62096C62.1415 2.62096 63.1374 2.91218 63.9341 3.39755L65.7266 1.31048C65.3283 1.01926 64.8801 0.825119 64.432 0.630973C63.3864 0.194146 62.1913 0 60.9465 0C59.4029 0 57.9589 0.339755 56.6643 1.01926C55.4195 1.69877 54.3738 2.62096 53.6767 3.78584C52.9298 4.95071 52.5813 6.30973 52.5813 7.81436C52.5813 9.31899 52.9298 10.6295 53.6767 11.8429C54.3738 13.0078 55.4195 13.9785 56.6643 14.6095C57.9091 15.289 59.3531 15.6287 60.9465 15.6287C62.1913 15.6287 63.3864 15.386 64.432 14.9977C64.9299 14.8036 65.4279 14.5124 65.8262 14.2212L64.1332 12.0856Z" fill="#868686"/>
<path d="M81.3615 3.83442C80.6146 2.66955 79.6188 1.69882 78.374 1.06785C77.1291 0.388339 75.6851 0.048584 74.0918 0.048584C72.4984 0.048584 71.0544 0.388339 69.8096 1.06785C68.5648 1.74736 67.5191 2.66955 66.822 3.88296C66.0751 5.04783 65.7266 6.40685 65.7266 7.86294C65.7266 9.31903 66.0751 10.6781 66.822 11.8429C67.5689 13.0563 68.5648 13.9785 69.8096 14.658C71.0544 15.3375 72.4984 15.6773 74.0918 15.6773C75.6851 15.6773 77.1291 15.3375 78.374 14.658C79.6686 13.9785 80.6644 13.0563 81.3615 11.8915C82.1084 10.7266 82.457 9.36757 82.457 7.86294C82.457 6.40685 82.1084 5.04783 81.3615 3.83442ZM79.3698 7.86294C79.3698 8.83367 79.1209 9.70732 78.6727 10.5324C78.2246 11.309 77.5773 11.94 76.7806 12.3768C75.9839 12.8137 75.0876 13.0563 74.0918 13.0563C73.0959 13.0563 72.1996 12.8137 71.403 12.3768C70.6063 11.94 69.959 11.309 69.5108 10.5324C69.0627 9.75586 68.8137 8.88221 68.8137 7.86294C68.8137 6.89221 69.0627 6.01856 69.5108 5.19344C69.959 4.41686 70.6063 3.78589 71.403 3.34906C72.1996 2.91223 73.0959 2.66955 74.0918 2.66955C75.0876 2.66955 75.9839 2.91223 76.7806 3.34906C77.5773 3.78589 78.2246 4.41686 78.6727 5.19344C79.1209 6.01856 79.3698 6.89221 79.3698 7.86294Z" fill="#868686"/>
<path d="M30.4733 20.2397H28.8799V22.9092H27.884V19.4631H30.4733V20.2397Z" fill="#868686"/>
<path d="M36.6476 22.2297H35.1539L34.8551 22.9092H33.8094L35.4028 19.4631H36.3987L37.992 22.9092H36.9464L36.6476 22.2297ZM36.3489 21.5017L35.9007 20.3853L35.4526 21.5017H36.3489Z" fill="#868686"/>
<path d="M44.1662 19.6087C44.4151 19.7058 44.5645 19.8514 44.7139 20.0456C44.8633 20.2397 44.9131 20.4824 44.9131 20.7251C44.9131 20.9678 44.8633 21.2104 44.7139 21.4046C44.5645 21.5987 44.4151 21.7443 44.1662 21.8414C43.9172 21.9385 43.6682 21.987 43.3197 21.987H42.7222V22.9092H41.7263V19.4631H43.3695C43.6184 19.4631 43.9172 19.5117 44.1662 19.6087ZM43.718 21.1134C43.8176 21.0163 43.8674 20.9192 43.8674 20.7251C43.8674 20.5795 43.8176 20.4339 43.718 20.3368C43.6184 20.2397 43.4691 20.1912 43.2699 20.1912H42.7222V21.2104H43.2699C43.4691 21.2104 43.6184 21.2104 43.718 21.1134Z" fill="#868686"/>
<path d="M51.2368 22.2297H49.743L49.4442 22.9092H48.3986L49.9919 19.4631H50.9878L52.5812 22.9092H51.5355L51.2368 22.2297ZM50.938 21.5017L50.4899 20.3853L50.0417 21.5017H50.938Z" fill="#868686"/>
<path d="M60.0502 19.4631V22.9092H59.0544V21.5502H57.71V22.9092H56.7141V19.4631H57.71V20.7251H59.0544V19.4631H60.0502Z" fill="#868686"/>
<path d="M67.3698 20.2397H66.2744V22.9092H65.2785V20.2397H64.1831V19.4631H67.3698V20.2397Z" fill="#868686"/>
<path d="M71.3036 19.4631H72.2497V21.5017L73.7434 19.4631H74.6895V22.9092H73.6936V20.8707L72.2497 22.9092H71.3036V19.4631Z" fill="#868686"/>
<path d="M81.3117 19.4631V22.9092H80.3159V22.0356H79.7682L79.1706 22.9092H78.125L78.8221 21.89C78.5731 21.7929 78.4238 21.6473 78.2744 21.4531C78.1748 21.259 78.0752 21.0163 78.0752 20.7736C78.0752 20.4824 78.125 20.2883 78.2744 20.0941C78.4238 19.9 78.5731 19.7544 78.8221 19.6573C79.0711 19.5602 79.32 19.5117 79.6686 19.5117H81.3117V19.4631ZM79.1208 20.7251C79.1208 20.9192 79.1706 21.0163 79.2702 21.1134C79.3698 21.2104 79.5192 21.259 79.7184 21.259H80.3159V20.1912H79.7184C79.32 20.2397 79.1208 20.3853 79.1208 20.7251Z" fill="#868686"/>
<path d="M23.2035 15.5316L23.0541 14.1241C22.7554 11.4546 21.8591 9.31898 20.5147 7.66874C19.2698 6.16412 17.6765 5.04778 15.6848 4.2712V0.242676L14.2408 0.388285C11.5022 0.679503 9.31127 1.55316 7.61831 2.86364C6.07473 4.07705 4.9295 5.63022 4.13281 7.57167H0L0.149379 8.97923C0.448136 11.6487 1.34441 13.7843 2.68882 15.4346C3.93364 16.9392 5.52701 18.0555 7.51873 18.8321V22.8606L8.96272 22.715C11.7013 22.4238 13.8922 21.5501 15.5852 20.2397C17.1288 19.0263 18.274 17.4731 19.0707 15.5316H23.2035ZM14.0416 18.2982C12.9959 19.1233 11.7013 19.7058 10.108 20.0455V11.7943H7.51873V16.2111C6.37349 15.6287 5.42742 14.9007 4.68053 13.9785C3.83405 12.9592 3.23654 11.6973 2.88799 10.1441H11.4026V7.66874H6.87142C7.46893 6.55241 8.21583 5.63022 9.16189 4.90217C10.2075 4.07705 11.5022 3.49461 13.0955 3.15486V11.5517H15.635V7.03777C16.7802 7.62021 17.7263 8.34825 18.4732 9.27044C19.3196 10.2897 19.9172 11.5517 20.2657 13.1048H11.8507V15.5802H16.2823C15.7346 16.648 14.9877 17.5702 14.0416 18.2982Z" fill="#868686"/>
</svg>
