<svg width="117" height="19" viewBox="0 0 117 19" fill="none" xmlns="http://www.w3.org/2000/svg">
<g clip-path="url(#clip0_87_3204)">
<path d="M16.635 3.65894C17.0584 4.23726 17.4169 4.86556 17.7032 5.53122L9.58307 11.8543L6.18945 9.60711V6.90364L9.58307 9.15082L16.635 3.65894Z" fill="#101010"/>
<path d="M2.72642 9.41633C2.72642 9.29502 2.72922 9.17452 2.73482 9.0547L0.678193 8.94824C0.671193 9.10352 0.666995 9.2603 0.666995 9.41852C0.66612 10.6548 0.896315 11.879 1.34438 13.021C1.79245 14.1631 2.44956 15.2005 3.27803 16.0736L4.73684 14.5333C4.09912 13.8624 3.59321 13.0649 3.24819 12.1868C2.90317 11.3086 2.72585 10.3671 2.72642 9.41633Z" fill="#101010"/>
<path d="M9.58192 2.17497C9.6967 2.17497 9.81077 2.17941 9.92418 2.18532L10.0271 0.0120749C9.87965 0.00468035 9.73123 0.000983546 9.58192 0.000983546C8.41104 -0.000524754 7.25148 0.242291 6.16973 0.715488C5.08798 1.18869 4.10537 1.88295 3.27832 2.7584L4.73714 4.29942C5.37231 3.62554 6.12733 3.09093 6.95877 2.72634C7.79022 2.36176 8.68165 2.17437 9.58192 2.17497Z" fill="#101010"/>
<path d="M9.58162 16.6576C9.46684 16.6576 9.35272 16.6576 9.23865 16.648L9.13574 18.8205C9.28367 18.8284 9.43232 18.8324 9.58162 18.8324C10.752 18.8336 11.911 18.5907 12.9922 18.1173C14.0734 17.644 15.0553 16.9496 15.8817 16.0742L14.4257 14.5339C13.7904 15.2075 13.0355 15.7418 12.2042 16.1062C11.3729 16.4707 10.4817 16.6581 9.58162 16.6576Z" fill="#101010"/>
<path d="M13.446 3.43846L15.1792 2.08896C13.595 0.733889 11.6176 -0.00376154 9.5791 1.44248e-05V2.17474C10.9594 2.17293 12.3078 2.61358 13.446 3.43846Z" fill="#101010"/>
<path d="M18.4957 9.41619C18.4968 8.85045 18.4499 8.28569 18.3557 7.72876L16.437 9.22245C16.437 9.28682 16.437 9.35113 16.437 9.41619C16.4375 10.428 16.2367 11.4286 15.8477 12.3531C15.4586 13.2777 14.89 14.1056 14.1787 14.7831L15.5626 16.3989C16.4874 15.517 17.2264 14.4397 17.7316 13.2368C18.2369 12.0339 18.4972 10.7322 18.4957 9.41619Z" fill="#101010"/>
<path d="M9.58187 16.6577C8.62398 16.658 7.67671 16.4459 6.80135 16.035C5.92603 15.624 5.14216 15.0235 4.50049 14.2722L2.97168 15.7334C3.80641 16.7104 4.82622 17.4911 5.96497 18.025C7.10372 18.5588 8.33597 18.8339 9.58187 18.8324V16.6577Z" fill="#101010"/>
<path d="M4.98465 4.0493L3.60143 2.43359C2.67642 3.3153 1.93718 4.39254 1.43165 5.59546C0.926132 6.79837 0.665614 8.1001 0.666998 9.41622H2.72642C2.726 8.4045 2.9268 7.40389 3.31582 6.47934C3.70484 5.55482 4.27339 4.72691 4.98465 4.0493Z" fill="#101010"/>
<path d="M52.1108 5.3849L54.6614 3.42236H46.125V15.2155H54.6614V13.253H48.5608V10.2321H53.7649V8.2696H48.5608V5.3849H52.1108Z" fill="#101010"/>
<path d="M40.3814 8.01671H37.4177V5.38427H42.1476L44.6967 3.41577H34.9834V15.2089H40.0679C42.9185 15.2089 44.5545 13.8596 44.5545 11.5063C44.5545 9.25505 43.0727 8.01671 40.3814 8.01671ZM39.9583 13.2457H37.4177V9.97803H39.9583C41.5001 9.97803 42.223 10.5256 42.223 11.6119C42.223 12.6981 41.4538 13.2457 39.9583 13.2457Z" fill="#101010"/>
<path d="M60.9357 3.42065H56.2891V15.2137H58.7245V11.873H60.9357C63.9003 11.873 65.7342 10.2437 65.7342 7.64051C65.7342 5.03735 63.9003 3.42065 60.9357 3.42065ZM60.8843 9.90894H58.7245V5.38468H60.8843C62.4437 5.38468 63.3043 6.18856 63.3043 7.64771C63.3043 9.10685 62.4437 9.90894 60.8843 9.90894Z" fill="#101010"/>
<path d="M31.3281 12.4308C30.699 12.7866 29.9941 12.9708 29.2787 12.9664C27.1375 12.9664 25.5841 11.3699 25.5841 9.17151C25.5841 6.97304 27.1375 5.37306 29.2787 5.37306C30.0509 5.35936 30.807 5.6039 31.4367 6.071L33.1403 4.76063L33.0251 4.67513C32.0313 3.76261 30.7035 3.2793 29.1835 3.2793C27.5349 3.2793 26.0401 3.85857 24.9728 4.91243C24.4331 5.45504 24.0063 6.10802 23.7189 6.83059C23.4316 7.55317 23.2898 8.32981 23.3025 9.11215C23.2911 9.90243 23.4322 10.687 23.7175 11.4191C24.0027 12.1512 24.4263 12.8156 24.9628 13.373C26.0351 14.4687 27.5266 15.0724 29.1635 15.0724C30.8738 15.0724 32.3687 14.4495 33.3809 13.3154L31.8559 12.1289L31.3281 12.4308Z" fill="#101010"/>
<path d="M75.3916 8.01671H72.4292V5.38427H78.7954V3.41577H69.9932V15.2089H75.0712C77.9215 15.2089 79.5576 13.8596 79.5576 11.5063C79.5643 9.25505 78.0828 8.01671 75.3916 8.01671ZM74.9685 13.2457H72.4292V9.97803H74.9685C76.5102 9.97803 77.2327 10.5256 77.2327 11.6119C77.2327 12.6981 76.4704 13.2457 74.9685 13.2457Z" fill="#101010"/>
<path d="M107.247 15.1921H104.778V3.39893H107.247V8.35211H108.591L112.221 3.39893H115.019L110.714 9.00905L115.713 15.1921H112.437L108.763 10.5539H107.247V15.1921Z" fill="#101010"/>
<path d="M88.5285 12.9508H83.3051L82.4197 15.2408H79.792L84.6911 3.44775H87.3182L92.1377 15.2408H89.4139L88.5285 12.9508ZM87.7104 10.814L85.9323 6.23375L84.1442 10.814H87.7104Z" fill="#101010"/>
<path d="M95.4619 3.44775V8.37235H100.571V3.44775H103.117V15.2408H100.571V10.594H95.4619V15.2408H92.916V3.44775H95.4619Z" fill="#101010"/>
</g>
<defs>
<clipPath id="clip0_87_3204">
<rect width="116" height="19" fill="white" transform="translate(0.666992)"/>
</clipPath>
</defs>
</svg>
