<svg width="82" height="13" viewBox="0 0 82 13" fill="none" xmlns="http://www.w3.org/2000/svg">
<path d="M0 8.97723C0.00927896 11.5459 2.30118 13 5.77151 13C9.46454 13 11.6173 11.3543 11.6173 8.76825C11.6173 6.73074 10.2625 5.62492 7.38605 5.13731L6.0406 4.91092C4.70443 4.68453 4.12914 4.4146 4.12914 3.84863C4.12914 3.28265 4.68587 2.82987 5.78079 2.82987C6.85715 2.82987 7.69226 3.27394 7.72009 4.04019H11.3389C11.3203 1.55861 9.31607 0 5.7344 0C2.55171 0 0.231974 1.59344 0.231974 4.11855C0.231974 6.06899 1.68877 7.33155 4.35183 7.77562L5.69728 8.00201C7.20047 8.25452 7.72009 8.50703 7.72009 9.09913C7.72009 9.71735 6.99633 10.1701 5.81791 10.1701C4.70443 10.1701 3.76726 9.73476 3.61879 8.97723H0Z" fill="#868686"/>
<path d="M20.9133 12.7823V0.217683H16.979V12.7823H20.9133Z" fill="#868686"/>
<path d="M30.599 8.56798H31.8888L34.0044 12.7823H38.4026L35.8602 8.01942C37.2613 7.3925 38.0222 5.9645 38.0222 4.48426C38.0222 1.7937 36.185 0.217683 32.6126 0.217683H26.6648V12.7823H30.599V8.56798ZM30.599 2.94307H32.2321C33.2899 2.94307 34.0044 3.61353 34.0044 4.54521C34.0044 5.49431 33.327 6.12994 32.2228 6.12994H30.599V2.94307Z" fill="#868686"/>
<path d="M47.4481 12.7823V0.217683H43.5139V12.7823H47.4481Z" fill="#868686"/>
<path d="M57.1339 0.217683H53.1996V8.30676C53.1996 11.1715 55.5657 13 59.101 13C62.6363 13 65.0024 11.1715 65.0024 8.30676V0.217683H61.0682V7.89752C61.0682 9.22103 60.3722 9.94374 59.101 9.94374C57.8298 9.94374 57.1339 9.22103 57.1339 7.89752V0.217683Z" fill="#868686"/>
<path d="M70.3827 8.97723C70.392 11.5459 72.6839 13 76.1543 13C79.8473 13 82 11.3543 82 8.76825C82 6.73074 80.6453 5.62492 77.7688 5.13731L76.4233 4.91092C75.0872 4.68453 74.5119 4.4146 74.5119 3.84863C74.5119 3.28265 75.0686 2.82987 76.1635 2.82987C77.2399 2.82987 78.075 3.27394 78.1028 4.04019H81.7216C81.7031 1.55861 79.6988 0 76.1171 0C72.9345 0 70.6147 1.59344 70.6147 4.11855C70.6147 6.06899 72.0715 7.33155 74.7346 7.77562L76.08 8.00201C77.5832 8.25452 78.1028 8.50703 78.1028 9.09913C78.1028 9.71735 77.3791 10.1701 76.2007 10.1701C75.0872 10.1701 74.15 9.73476 74.0015 8.97723H70.3827Z" fill="#868686"/>
</svg>
