<svg width="155" height="155" viewBox="0 0 155 155" fill="none" xmlns="http://www.w3.org/2000/svg">
<path fill-rule="evenodd" clip-rule="evenodd" d="M85.25 124C89.3609 124 93.3033 125.633 96.2102 128.54C99.117 131.447 100.75 135.389 100.75 139.5C100.75 143.611 99.117 147.553 96.2102 150.46C93.3033 153.367 89.3609 155 85.25 155C81.1391 155 77.1967 153.367 74.2898 150.46C71.383 147.553 69.75 143.611 69.75 139.5C69.75 135.389 71.383 131.447 74.2898 128.54C77.1967 125.633 81.1391 124 85.25 124ZM36.7428 100.75C41.8813 100.75 46.8094 102.791 50.4429 106.425C54.0765 110.058 56.1178 114.986 56.1178 120.125C56.1178 125.264 54.0765 130.192 50.4429 133.825C46.8094 137.459 41.8813 139.5 36.7428 139.5C31.6042 139.5 26.6761 137.459 23.0426 133.825C19.409 130.192 17.3678 125.264 17.3678 120.125C17.3678 114.986 19.409 110.058 23.0426 106.425C26.6761 102.791 31.6042 100.75 36.7428 100.75ZM126.472 104.625C130.583 104.625 134.526 106.258 137.432 109.165C140.339 112.072 141.972 116.014 141.972 120.125C141.972 124.236 140.339 128.178 137.432 131.085C134.526 133.992 130.583 135.625 126.472 135.625C122.361 135.625 118.419 133.992 115.512 131.085C112.605 128.178 110.972 124.236 110.972 120.125C110.972 116.014 112.605 112.072 115.512 109.165C118.419 106.258 122.361 104.625 126.472 104.625ZM143.375 72.2223C146.458 72.2223 149.415 73.447 151.595 75.6271C153.775 77.8072 155 80.7641 155 83.8473C155 86.9304 153.775 89.8873 151.595 92.0674C149.415 94.2475 146.458 95.4723 143.375 95.4723C140.292 95.4723 137.335 94.2475 135.155 92.0674C132.975 89.8873 131.75 86.9304 131.75 83.8473C131.75 80.7641 132.975 77.8072 135.155 75.6271C137.335 73.447 140.292 72.2223 143.375 72.2223ZM19.375 46.5C24.5136 46.5 29.4417 48.5413 33.0752 52.1748C36.7087 55.8083 38.75 60.7364 38.75 65.875C38.75 71.0136 36.7087 75.9417 33.0752 79.5752C29.4417 83.2087 24.5136 85.25 19.375 85.25C14.2364 85.25 9.30832 83.2087 5.67481 79.5752C2.04129 75.9417 0 71.0136 0 65.875C0 60.7364 2.04129 55.8083 5.67481 52.1748C9.30832 48.5413 14.2364 46.5 19.375 46.5ZM137.841 40.3542C139.897 40.3542 141.868 41.1708 143.322 42.6242C144.775 44.0776 145.591 46.0488 145.591 48.1042C145.591 50.1597 144.775 52.1309 143.322 53.5843C141.868 55.0377 139.897 55.8542 137.841 55.8542C135.786 55.8542 133.815 55.0377 132.361 53.5843C130.908 52.1309 130.091 50.1597 130.091 48.1042C130.091 46.0488 130.908 44.0776 132.361 42.6242C133.815 41.1708 135.786 40.3542 137.841 40.3542ZM62 0C68.1663 0 74.08 2.44955 78.4402 6.80977C82.8005 11.17 85.25 17.0837 85.25 23.25C85.25 29.4163 82.8005 35.33 78.4402 39.6902C74.08 44.0505 68.1663 46.5 62 46.5C55.8337 46.5 49.92 44.0505 45.5598 39.6902C41.1995 35.33 38.75 29.4163 38.75 23.25C38.75 17.0837 41.1995 11.17 45.5598 6.80977C49.92 2.44955 55.8337 0 62 0V0ZM120.125 23.25C121.153 23.25 122.138 23.6583 122.865 24.385C123.592 25.1117 124 26.0973 124 27.125C124 28.1527 123.592 29.1383 122.865 29.865C122.138 30.5917 121.153 31 120.125 31C119.097 31 118.112 30.5917 117.385 29.865C116.658 29.1383 116.25 28.1527 116.25 27.125C116.25 26.0973 116.658 25.1117 117.385 24.385C118.112 23.6583 119.097 23.25 120.125 23.25Z" fill="white"/>
</svg>
