<svg xmlns="http://www.w3.org/2000/svg">
  <symbol id="logo-white" viewBox="0 0 84 25">
    <g>
      <path d="M13.2594 25C10.5869 25 8.2457 24.4981 6.23567 23.4944C4.24848 22.4907 2.70669 21.0551 1.61031 19.1877C0.53677 17.3203 0 15.1494 0 12.6751C0 10.1774 0.54819 7.97152 1.64457 6.05742C2.76379 4.11998 4.28274 2.62605 6.2014 1.57563C8.14291 0.52521 10.3128 0 12.7112 0C15.0867 0 17.2337 0.52521 19.1524 1.57563C21.0939 2.62605 22.6129 4.11998 23.7092 6.05742C24.8285 7.97152 25.3881 10.1774 25.3881 12.6751C25.3881 14.3557 25.0226 15.9664 24.2917 17.507C23.5608 19.0243 22.6129 20.2264 21.4479 21.1134H25.8335V25H13.2594ZM12.7112 20.9734C15.2465 20.9734 17.2566 20.2498 18.7413 18.8025C20.2488 17.3553 21.0025 15.3128 21.0025 12.6751C21.0025 10.9477 20.6371 9.43044 19.9062 8.12325C19.1752 6.81606 18.1816 5.81233 16.9254 5.11205C15.6691 4.41176 14.2644 4.06162 12.7112 4.06162C11.158 4.06162 9.7418 4.41176 8.46269 5.11205C7.20642 5.81233 6.21282 6.81606 5.4819 8.12325C4.75098 9.43044 4.38552 10.9477 4.38552 12.6751C4.38552 15.3361 5.12786 17.3903 6.61255 18.8375C8.12007 20.2614 10.1529 20.9734 12.7112 20.9734Z" />
      <path d="M33.9455 4.20168H26.7163V0.52521H45.526V4.20168H38.2968V25H33.9455V4.20168Z"/>
      <path d="M49.6329 0.52521H53.9842V25H49.6329V0.52521Z" />
      <path d="M59.4685 0.52521H63.717L71.7342 18.4524L79.7515 0.52521H84V25H79.8886V9.10364L72.7621 25H70.7064L63.5799 9.10364V25H59.4685V0.52521Z" />
    </g>
  </symbol>
  <symbol id="language-uk" viewBox="0 0 24 24">
    <g>
     <path d="M12 24C18.6274 24 24 18.6274 24 12C24 5.37258 18.6274 0 12 0C5.37258 0 0 5.37258 0 12C0 18.6274 5.37258 24 12 24Z" fill="#F0F0F0"/>
    <path d="M2.48081 4.69415C1.5382 5.92054 0.827434 7.33406 0.413574 8.86964H6.65629L2.48081 4.69415Z" fill="#0052B4"/>
    <path d="M23.5869 8.86965C23.173 7.33412 22.4622 5.9206 21.5196 4.69421L17.3442 8.86965H23.5869Z" fill="#0052B4"/>
    <path d="M0.413574 15.1305C0.82748 16.666 1.53825 18.0795 2.48081 19.3059L6.65615 15.1305H0.413574Z" fill="#0052B4"/>
    <path d="M19.3058 2.48067C18.0794 1.53806 16.6659 0.827297 15.1304 0.413391V6.65606L19.3058 2.48067Z" fill="#0052B4"/>
    <path d="M4.69434 21.5193C5.92073 22.4619 7.33424 23.1727 8.86977 23.5866V17.344L4.69434 21.5193Z" fill="#0052B4"/>
    <path d="M8.86973 0.413391C7.33419 0.827297 5.92068 1.53806 4.69434 2.48063L8.86973 6.65602V0.413391Z" fill="#0052B4"/>
    <path d="M15.1309 23.5866C16.6664 23.1727 18.0799 22.4619 19.3063 21.5194L15.1309 17.344V23.5866Z" fill="#0052B4"/>
    <path d="M17.3442 15.1305L21.5196 19.3059C22.4622 18.0796 23.173 16.666 23.5869 15.1305H17.3442Z" fill="#0052B4"/>
    <path d="M23.8984 10.4348H13.5653H13.5652V0.101578C13.0529 0.034875 12.5305 0 12 0C11.4694 0 10.9471 0.034875 10.4348 0.101578V10.4347V10.4348H0.101578C0.034875 10.9471 0 11.4695 0 12C0 12.5306 0.034875 13.0529 0.101578 13.5652H10.4347H10.4348V23.8984C10.9471 23.9651 11.4694 24 12 24C12.5305 24 13.0529 23.9652 13.5652 23.8984V13.5653V13.5652H23.8984C23.9651 13.0529 24 12.5306 24 12C24 11.4695 23.9651 10.9471 23.8984 10.4348V10.4348Z" fill="#D80027"/>
    <path d="M15.1304 15.1305L20.4852 20.4853C20.7315 20.2391 20.9664 19.9817 21.1906 19.7149L16.6061 15.1305H15.1304V15.1305Z" fill="#D80027"/>
    <path d="M8.86951 15.1305H8.86941L3.51465 20.4853C3.76084 20.7315 4.01823 20.9665 4.28504 21.1906L8.86951 16.6061V15.1305Z" fill="#D80027"/>
    <path d="M8.86976 8.86963V8.86954L3.51495 3.51468C3.26866 3.76087 3.03373 4.01826 2.80957 4.28507L7.39409 8.86958H8.86976V8.86963Z" fill="#D80027"/>
    <path d="M15.1304 8.86965L20.4852 3.51475C20.239 3.26846 19.9817 3.03353 19.7148 2.80942L15.1304 7.39393V8.86965Z" fill="#D80027"/>
    </g>
  </symbol>
  <symbol id="language-rus" viewBox="0 0 24 24">
    <g>
      <g clip-path="url(#clip0_109_1937)">
      <path d="M12 24C18.6274 24 24 18.6274 24 12C24 5.37258 18.6274 0 12 0C5.37258 0 0 5.37258 0 12C0 18.6274 5.37258 24 12 24Z" fill="#F0F0F0"/>
      <path d="M23.2536 16.1739C23.736 14.8739 24 13.4678 24 12C24 10.5322 23.736 9.1261 23.2536 7.82611H0.746391C0.264047 9.1261 0 10.5322 0 12C0 13.4678 0.264047 14.8739 0.746391 16.1739L12 17.2174L23.2536 16.1739Z" fill="#0052B4"/>
      <path d="M11.9999 24C17.1595 24 21.558 20.7435 23.2536 16.1739H0.746338C2.44185 20.7435 6.84037 24 11.9999 24Z" fill="#D80027"/>
      </g>
      <defs>
      <clipPath id="clip0_109_1937">
      <rect width="24" height="24" fill="white"/>
      </clipPath>
      </defs>
    </g>
  </symbol>
  <symbol id="shape-triangle" viewBox="0 0 118 103">
    <g>
      <path d="M1.15778 101.646L58.9998 1.29373L116.842 101.646H1.15778Z"/>
    </g>
  </symbol>
  <symbol id="shape-circle-big" viewBox="0 0 57 58">
    <g>
      <circle cx="28.7072" cy="29.1462" r="27.7927"/>
    </g>
  </symbol>
  <symbol id="shape-spin" viewBox="0 0 160 160">
    <g>
      <circle opacity="0.5" cx="79.9999" cy="147.538" r="11.9623" stroke="red" />
      <circle opacity="0.7" cx="147.538" cy="79.9999" r="11.9623" stroke="red" />
      <circle opacity="0.5" cx="105.729" cy="142.714" r="11.9623" stroke="red" />
      <circle opacity="0.6" cx="128.241" cy="127.437" r="11.9623" stroke="red" />
      <circle opacity="0.6" cx="142.714" cy="105.728" r="11.9623" />
      <circle opacity="0.3" r="11.9623" transform="matrix(-1 0 0 1 12.4622 79.9999)" />
      <circle opacity="0.4" r="11.9623" transform="matrix(-1 0 0 1 54.2713 142.714)" />
      <circle opacity="0.4" r="11.9623" transform="matrix(-1 0 0 1 31.7589 127.437)" />
      <circle opacity="0.3" r="11.9623" transform="matrix(-1 0 0 1 17.2865 105.728)" />
      <circle opacity="0.8" cx="80.0001" cy="12.4625" r="11.9623" transform="rotate(-180 80.0001 12.4625)" />
      <circle opacity="0.1" cx="54.2713" cy="17.2867" r="11.9623" transform="rotate(-180 54.2713 17.2867)" />
      <circle opacity="0.1" cx="31.7589" cy="32.5631" r="11.9623" transform="rotate(-180 31.7589 32.5631)" />
      <circle opacity="0.2" cx="17.2865" cy="54.2716" r="11.9623" transform="rotate(-180 17.2865 54.2716)" />
      <circle opacity="0.8" r="11.9623" transform="matrix(1 0 0 -1 105.729 17.2867)" />
      <circle opacity="0.8" r="11.9623" transform="matrix(1 0 0 -1 128.241 32.5631)" />
      <circle opacity="0.7" r="11.9623" transform="matrix(1 0 0 -1 142.714 54.2716)" />
    </g>
  </symbol>
  <symbol id="shape-square"  viewBox="0 0 111 111">
    <g>
      <path d="M0.5 0.5H110.5V110.5H110.493H110.24H109.987H109.735H109.484H109.233H108.982H108.732H108.482H108.232H107.983H107.734H107.486H107.238H106.991H106.744H106.497H106.251H106.005H105.76H105.515H105.27H105.026H104.782H104.539H104.295H104.053H103.811H103.569H103.327H103.086H102.845H102.605H102.365H102.125H101.886H101.647H101.409H101.171H100.933H100.696H100.459H100.222H99.9858H99.7499H99.5143H99.2791H99.0442H98.8097H98.5756H98.3418H98.1083H97.8752H97.6424H97.41H97.1779H96.9462H96.7148H96.4837H96.253H96.0226H95.7925H95.5628H95.3333H95.1042H94.8755H94.647H94.4189H94.1911H93.9636H93.7364H93.5095H93.283H93.0567H92.8308H92.6052H92.3798H92.1548H91.9301H91.7057H91.4816H91.2577H91.0342H90.811H90.588H90.3654H90.143H89.9209H89.6991H89.4776H89.2563H89.0354H88.8147H88.5943H88.3742H88.1543H87.9347H87.7154H87.4964H87.2776H87.0591H86.8408H86.6228H86.4051H86.1876H85.9704H85.7534H85.5367H85.3202H85.104H84.888H84.6723H84.4568H84.2415H84.0265H83.8118H83.5972H83.3829H83.1689H82.955H82.7414H82.5281H82.3149H82.102H81.8893H81.6768H81.4646H81.2525H81.0407H80.8291H80.6177H80.4065H80.1955H79.9848H79.7742H79.5639H79.3537H79.1438H78.934H78.7244H78.5151H78.3059H78.0969H77.8882H77.6796H77.4712H77.2629H77.0549H76.8471H76.6394H76.4319H76.2246H76.0174H75.8104H75.6037H75.397H75.1906H74.9843H74.7781H74.5722H74.3664H74.1607H73.9553H73.7499H73.5448H73.3397H73.1349H72.9302H72.7256H72.5212H72.3169H72.1128H71.9088H71.7049H71.5012H71.2976H71.0942H70.8909H70.6877H70.4846H70.2817H70.0789H69.8762H69.6737H69.4712H69.2689H69.0667H68.8647H68.6627H68.4608H68.2591H68.0575H67.8559H67.6545H67.4532H67.252H67.0509H66.8499H66.649H66.4481H66.2474H66.0468H65.8462H65.6458H65.4454H65.2451H65.0449H64.8448H64.6448H64.4448H64.2449H64.0451H63.8454H63.6457H63.4461H63.2466H63.0471H62.8477H62.6484H62.4491H62.2499H62.0508H61.8517H61.6526H61.4536H61.2547H61.0558H60.8569H60.6582H60.4594H60.2607H60.062H59.8634H59.6648H59.4662H59.2677H59.0692H58.8708H58.6723H58.4739H58.2756H58.0772H57.8789H57.6806H57.4823H57.284H57.0857H56.8875H56.6893H56.491H56.2928H56.0946H55.8964H55.6982H55.5H55.3018H55.1036H54.9054H54.7072H54.509H54.3107H54.1125H53.9143H53.716H53.5177H53.3194H53.1211H52.9228H52.7244H52.5261H52.3277H52.1292H51.9308H51.7323H51.5338H51.3352H51.1366H50.938H50.7393H50.5406H50.3418H50.1431H49.9442H49.7453H49.5464H49.3474H49.1483H48.9492H48.7501H48.5509H48.3516H48.1523H47.9529H47.7534H47.5539H47.3543H47.1546H46.9549H46.7551H46.5552H46.3552H46.1552H45.9551H45.7549H45.5546H45.3542H45.1538H44.9532H44.7526H44.5519H44.351H44.1501H43.9491H43.748H43.5468H43.3455H43.1441H42.9425H42.7409H42.5392H42.3373H42.1353H41.9333H41.7311H41.5288H41.3263H41.1238H40.9211H40.7183H40.5154H40.3123H40.1091H39.9058H39.7024H39.4988H39.2951H39.0912H38.8872H38.6831H38.4788H38.2744H38.0698H37.8651H37.6603H37.4552H37.2501H37.0447H36.8393H36.6336H36.4278H36.2219H36.0157H35.8094H35.603H35.3964H35.1896H34.9826H34.7754H34.5681H34.3606H34.153H33.9451H33.7371H33.5288H33.3204H33.1118H32.9031H32.6941H32.4849H32.2756H32.066H31.8562H31.6463H31.4361H31.2258H31.0152H30.8045H30.5935H30.3823H30.1709H29.9593H29.7475H29.5354H29.3232H29.1107H28.898H28.6851H28.4719H28.2586H28.045H27.8311H27.6171H27.4028H27.1882H26.9735H26.7585H26.5432H26.3277H26.112H25.896H25.6798H25.4633H25.2466H25.0297H24.8124H24.5949H24.3772H24.1592H23.9409H23.7224H23.5036H23.2846H23.0653H22.8457H22.6258H22.4057H22.1853H21.9646H21.7437H21.5224H21.3009H21.0791H20.857H20.6346H20.412H20.189H19.9658H19.7423H19.5184H19.2943H19.0699H18.8452H18.6202H18.3948H18.1692H17.9433H17.717H17.4905H17.2636H17.0364H16.8089H16.5811H16.353H16.1245H15.8958H15.6667H15.4373H15.2075H14.9774H14.747H14.5163H14.2852H14.0538H13.8221H13.59H13.3576H13.1248H12.8917H12.6582H12.4244H12.1903H11.9558H11.7209H11.4857H11.2501H11.0142H10.7779H10.5413H10.3043H10.0669H9.82918H9.59108H9.3526H9.11376H8.87454H8.63495H8.39498H8.15463H7.91391H7.6728H7.43131H7.18943H6.94717H6.70452H6.46148H6.21805H5.97423H5.73001H5.48539H5.24037H4.99496H4.74914H4.50292H4.25629H4.00926H3.76182H3.51397H3.2657H3.01703H2.76793H2.51842H2.26849H2.01814H1.76737H1.51618H1.26455H1.0125H0.760026H0.507117H0.5V0.5Z"  fill-opacity="0.1" />
    </g>
  </symbol>
  <symbol id="file" viewBox="0 0 20 21">
    <g>
      <path d="M3.57129 8.35673V2.64244C3.57129 2.26356 3.7218 1.9002 3.98971 1.63229C4.25762 1.36438 4.62098 1.21387 4.99986 1.21387H12.1427L19.2856 8.35673V18.3567C19.2856 18.7356 19.1351 19.099 18.8672 19.3669C18.5992 19.6348 18.2359 19.7853 17.857 19.7853H10.7141" stroke-width="1.71429" stroke-linecap="round" stroke-linejoin="round"/>
      <path d="M12.1431 1.21387V8.35672H19.2859" stroke="#868686" stroke-width="1.71429" stroke-linecap="round" stroke-linejoin="round"/>
      <path d="M5 11.2139V19.7853" stroke-width="1.71429" stroke-linecap="round" stroke-linejoin="round"/>
      <path d="M0.714355 15.5H9.28578" stroke-width="1.71429" stroke-linecap="round" stroke-linejoin="round"/>
    </g>
  </symbol>
  <symbol viewBox="0 0 155 155" id="spin-form">
    <g>
      <path fill-rule="evenodd" clip-rule="evenodd" d="M85.25 124C89.3609 124 93.3033 125.633 96.2102 128.54C99.117 131.447 100.75 135.389 100.75 139.5C100.75 143.611 99.117 147.553 96.2102 150.46C93.3033 153.367 89.3609 155 85.25 155C81.1391 155 77.1967 153.367 74.2898 150.46C71.383 147.553 69.75 143.611 69.75 139.5C69.75 135.389 71.383 131.447 74.2898 128.54C77.1967 125.633 81.1391 124 85.25 124ZM36.7428 100.75C41.8813 100.75 46.8094 102.791 50.4429 106.425C54.0765 110.058 56.1178 114.986 56.1178 120.125C56.1178 125.264 54.0765 130.192 50.4429 133.825C46.8094 137.459 41.8813 139.5 36.7428 139.5C31.6042 139.5 26.6761 137.459 23.0426 133.825C19.409 130.192 17.3678 125.264 17.3678 120.125C17.3678 114.986 19.409 110.058 23.0426 106.425C26.6761 102.791 31.6042 100.75 36.7428 100.75ZM126.472 104.625C130.583 104.625 134.526 106.258 137.432 109.165C140.339 112.072 141.972 116.014 141.972 120.125C141.972 124.236 140.339 128.178 137.432 131.085C134.526 133.992 130.583 135.625 126.472 135.625C122.361 135.625 118.419 133.992 115.512 131.085C112.605 128.178 110.972 124.236 110.972 120.125C110.972 116.014 112.605 112.072 115.512 109.165C118.419 106.258 122.361 104.625 126.472 104.625ZM143.375 72.2223C146.458 72.2223 149.415 73.447 151.595 75.6271C153.775 77.8072 155 80.7641 155 83.8473C155 86.9304 153.775 89.8873 151.595 92.0674C149.415 94.2475 146.458 95.4723 143.375 95.4723C140.292 95.4723 137.335 94.2475 135.155 92.0674C132.975 89.8873 131.75 86.9304 131.75 83.8473C131.75 80.7641 132.975 77.8072 135.155 75.6271C137.335 73.447 140.292 72.2223 143.375 72.2223ZM19.375 46.5C24.5136 46.5 29.4417 48.5413 33.0752 52.1748C36.7087 55.8083 38.75 60.7364 38.75 65.875C38.75 71.0136 36.7087 75.9417 33.0752 79.5752C29.4417 83.2087 24.5136 85.25 19.375 85.25C14.2364 85.25 9.30832 83.2087 5.67481 79.5752C2.04129 75.9417 0 71.0136 0 65.875C0 60.7364 2.04129 55.8083 5.67481 52.1748C9.30832 48.5413 14.2364 46.5 19.375 46.5ZM137.841 40.3542C139.897 40.3542 141.868 41.1708 143.322 42.6242C144.775 44.0776 145.591 46.0488 145.591 48.1042C145.591 50.1597 144.775 52.1309 143.322 53.5843C141.868 55.0377 139.897 55.8542 137.841 55.8542C135.786 55.8542 133.815 55.0377 132.361 53.5843C130.908 52.1309 130.091 50.1597 130.091 48.1042C130.091 46.0488 130.908 44.0776 132.361 42.6242C133.815 41.1708 135.786 40.3542 137.841 40.3542ZM62 0C68.1663 0 74.08 2.44955 78.4402 6.80977C82.8005 11.17 85.25 17.0837 85.25 23.25C85.25 29.4163 82.8005 35.33 78.4402 39.6902C74.08 44.0505 68.1663 46.5 62 46.5C55.8337 46.5 49.92 44.0505 45.5598 39.6902C41.1995 35.33 38.75 29.4163 38.75 23.25C38.75 17.0837 41.1995 11.17 45.5598 6.80977C49.92 2.44955 55.8337 0 62 0V0ZM120.125 23.25C121.153 23.25 122.138 23.6583 122.865 24.385C123.592 25.1117 124 26.0973 124 27.125C124 28.1527 123.592 29.1383 122.865 29.865C122.138 30.5917 121.153 31 120.125 31C119.097 31 118.112 30.5917 117.385 29.865C116.658 29.1383 116.25 28.1527 116.25 27.125C116.25 26.0973 116.658 25.1117 117.385 24.385C118.112 23.6583 119.097 23.25 120.125 23.25Z" fill="white"/>

    </g>
  </symbol>
</svg>