<svg width="46" height="46" viewBox="0 0 46 46" fill="none" xmlns="http://www.w3.org/2000/svg">
<path fill-rule="evenodd" clip-rule="evenodd" d="M39.535 2.0025C41.3435 2.96258 42.8216 4.4442 43.7775 6.255C44.7562 8.08875 45.2775 9.9075 45.2775 14.9212V23.7275C45.2775 23.8412 45.2088 23.9436 45.1038 23.9871C44.9988 24.0306 44.8779 24.0066 44.7975 23.9263V23.925L41.4787 20.6C41.2152 20.3359 41.0673 19.9781 41.0675 19.605V15.535C41.0675 11.7738 40.6762 10.41 39.9425 9.035C39.2253 7.67706 38.1165 6.56606 36.76 5.84625C35.4031 5.11775 34.0561 4.72703 30.3927 4.71888L24.9062 4.71875C24.7928 4.71815 24.6908 4.64944 24.6476 4.54452C24.6044 4.4396 24.6285 4.31902 24.7087 4.23875L28.0275 0.9125C28.29 0.64875 28.6475 0.5 29.02 0.5H30.8862C35.89 0.5 37.705 1.0225 39.535 2.0025ZM32.6487 7.53125C35.7487 7.53125 38.2612 10.05 38.2612 13.1562V16.7175C38.2607 16.8297 38.1935 16.9309 38.0903 16.9749C37.987 17.0189 37.8675 16.9974 37.7862 16.92L33.2612 12.585C32.9612 12.285 32.6112 12.0675 32.2375 11.9313C31.9204 11.8111 31.584 11.7497 31.245 11.75H17.8875C17.7738 11.7499 17.6713 11.6814 17.6278 11.5763C17.5844 11.4713 17.6084 11.3504 17.6887 11.27L21.0125 7.9425C21.275 7.68 21.6312 7.53125 22.0037 7.53125H32.6487Z" fill="#868686"/>
<path fill-rule="evenodd" clip-rule="evenodd" d="M41.5463 24.8875L44.8663 28.2138C45.1288 28.4775 45.2776 28.8363 45.2776 29.2088V31.08C45.2776 36.0938 44.7563 37.9125 43.7776 39.7463C42.8218 41.5571 41.3436 43.0387 39.5351 43.9988C37.7051 44.9775 35.8901 45.5 30.8863 45.5H22.1001C21.9866 45.4994 21.8846 45.4307 21.8415 45.3258C21.7983 45.2209 21.8224 45.1003 21.9026 45.02V45.0213L25.2213 41.695C25.4838 41.4313 25.8413 41.2825 26.2138 41.2825H30.2751C34.0276 41.2825 35.3876 40.8913 36.7601 40.155C38.1166 39.4352 39.2254 38.3242 39.9426 36.9663C40.6763 35.5913 41.0676 34.2275 41.0676 30.4663V25.0863C41.0682 24.9731 41.1365 24.8714 41.241 24.828C41.3455 24.7846 41.4658 24.8081 41.5463 24.8875ZM34.5313 17.855L37.8513 21.185C38.1138 21.4488 38.2613 21.8063 38.2613 22.18V32.8475C38.2613 35.9538 35.7488 38.4725 32.6488 38.4725H29.0951C28.9829 38.472 28.8817 38.4048 28.8377 38.3016C28.7937 38.1984 28.8152 38.0789 28.8926 37.9975V37.9963L33.2176 33.46C33.5176 33.16 33.7351 32.81 33.8713 32.435C33.9908 32.1174 34.0518 31.7807 34.0513 31.4413V18.0538C34.0514 17.9401 34.12 17.8377 34.225 17.7942C34.33 17.7507 34.4509 17.7747 34.5313 17.855Z" fill="#232323"/>
<path fill-rule="evenodd" clip-rule="evenodd" d="M0.85375 22.0738L4.175 25.4C4.4375 25.6638 4.58625 26.0225 4.58625 26.395V30.465C4.58625 34.2263 4.97625 35.59 5.71125 36.965C6.42807 38.3228 7.53643 39.4337 8.8925 40.1538C10.265 40.89 11.6263 41.2813 15.3787 41.2813H20.7463C20.8602 41.2809 20.9631 41.3492 21.0069 41.4543C21.0507 41.5595 21.0267 41.6807 20.9463 41.7613L17.625 45.0875C17.3625 45.3513 17.005 45.5 16.6338 45.5H14.7663C9.7625 45.5 7.94875 44.9775 6.11875 43.9975C4.30975 43.0376 2.83115 41.556 1.875 39.745C0.906038 37.9296 0.385471 36.1289 0.375156 31.2282L0.375 22.2725C0.375597 22.1594 0.443923 22.0576 0.54841 22.0142C0.652898 21.9709 0.773205 21.9943 0.85375 22.0738ZM7.86625 29.08H7.865L12.3925 33.415C12.6912 33.715 13.0425 33.9325 13.415 34.0688C13.7225 34.1863 14.0575 34.25 14.4075 34.25H27.765C27.8785 34.2506 27.9804 34.3193 28.0236 34.4242C28.0668 34.5292 28.0427 34.6497 27.9625 34.73L24.64 38.0575C24.3775 38.32 24.02 38.4688 23.6488 38.4688H13.0038C11.5136 38.4671 10.0851 37.8735 9.03252 36.8186C7.97998 35.7638 7.38959 34.3339 7.39125 32.8438V29.2825C7.39179 29.1703 7.45898 29.0692 7.5622 29.0252C7.66542 28.9812 7.78492 29.0026 7.86625 29.08Z" fill="#868686"/>
<path fill-rule="evenodd" clip-rule="evenodd" d="M16.5575 7.53125C16.6697 7.5318 16.7709 7.59898 16.8149 7.7022C16.8589 7.80542 16.8374 7.92492 16.76 8.00625L12.4338 12.5437C12.1337 12.8438 11.9175 13.1937 11.7812 13.5687C11.6614 13.8863 11.5999 14.223 11.6 14.5625V27.95C11.5989 28.0629 11.5304 28.1642 11.426 28.2073C11.3216 28.2503 11.2016 28.2268 11.1213 28.1475L7.80125 24.8175C7.53848 24.5535 7.39105 24.1962 7.39125 23.8237V13.1562C7.39125 10.05 9.90375 7.53125 13.0038 7.53125H16.5575ZM23.5525 0.5C23.666 0.500602 23.7679 0.56931 23.8111 0.674228C23.8543 0.779147 23.8302 0.899729 23.75 0.98L20.4312 4.30625C20.1675 4.57 19.8112 4.71875 19.4387 4.71875H15.3775C11.625 4.71875 10.2638 5.11 8.89125 5.84625C7.53472 6.56606 6.4259 7.67706 5.70875 9.035C4.98272 10.3955 4.59202 11.745 4.58388 15.417L4.58375 20.915C4.58315 21.0281 4.51483 21.1299 4.41034 21.1733C4.30585 21.2166 4.18554 21.1932 4.105 21.1138L0.7875 17.7875C0.523512 17.5236 0.375 17.1657 0.375 16.7925V14.9212C0.375 9.9075 0.89625 8.08875 1.875 6.255C2.83082 4.4442 4.30896 2.96258 6.1175 2.0025C7.9292 1.0323 9.7262 0.510496 14.6159 0.500157L23.5525 0.5Z" fill="#232323"/>
</svg>
