<svg width="48" height="44" viewBox="0 0 48 44" fill="none" xmlns="http://www.w3.org/2000/svg">
<path d="M48 22.1346C48 18.9527 44.0179 15.9373 37.9128 14.0674C39.3216 7.84079 38.6955 2.88692 35.9364 1.3009C35.3004 0.928873 34.5569 0.752649 33.7448 0.752649V2.93587C34.1949 2.93587 34.5569 3.02399 34.8602 3.19042C36.1908 3.95406 36.768 6.86176 36.318 10.6016C36.2104 11.5219 36.0342 12.4912 35.819 13.48C33.9013 13.01 31.8076 12.6478 29.6062 12.4128C28.2854 10.6016 26.9156 8.95688 25.5361 7.51771C28.7256 4.55127 31.7195 2.92608 33.7546 2.92608V0.742859C31.064 0.742859 27.5418 2.66175 23.9804 5.99043C20.4191 2.68133 16.8969 0.78202 14.2063 0.78202V2.96525C16.2316 2.96525 19.2352 4.58064 22.4248 7.5275C21.055 8.96667 19.6853 10.6016 18.384 12.4128C16.1729 12.6478 14.0791 13.01 12.1614 13.4898C11.9364 12.5107 11.7701 11.5611 11.6527 10.6506C11.1928 6.91072 11.7603 4.00301 13.0811 3.22958C13.3746 3.05336 13.7562 2.97504 14.2063 2.97504V0.79181C13.3844 0.79181 12.6408 0.968034 11.9951 1.34006C9.24582 2.92608 8.62943 7.87016 10.0481 14.0772C3.96249 15.9569 0 18.9625 0 22.1346C0 25.3164 3.98206 28.3318 10.0872 30.2017C8.67835 36.4283 9.30453 41.3822 12.0636 42.9682C12.6996 43.3402 13.4431 43.5165 14.265 43.5165C16.9556 43.5165 20.4778 41.5976 24.0391 38.2689C27.6005 41.578 31.1227 43.4773 33.8133 43.4773C34.6351 43.4773 35.3787 43.3011 36.0245 42.929C38.7738 41.343 39.3901 36.3989 37.9715 30.1919C44.0375 28.322 48 25.3066 48 22.1346ZM35.2613 15.6045C34.8993 16.8674 34.4492 18.1695 33.9405 19.4716C33.5393 18.6884 33.1186 17.9052 32.6588 17.1219C32.2087 16.3387 31.7293 15.5751 31.2499 14.831C32.6392 15.0366 33.9796 15.2912 35.2613 15.6045ZM30.7803 26.0311C30.0171 27.3528 29.2344 28.6059 28.4223 29.771C26.9645 29.8982 25.4872 29.9668 24 29.9668C22.5226 29.9668 21.0453 29.8982 19.5972 29.7807C18.7852 28.6157 17.9927 27.3723 17.2295 26.0604C16.4859 24.7779 15.8108 23.4758 15.1945 22.1639C15.8011 20.852 16.4859 19.5401 17.2197 18.2576C17.9829 16.9359 18.7656 15.6828 19.5777 14.5177C21.0355 14.3905 22.5128 14.3219 24 14.3219C25.4774 14.3219 26.9548 14.3905 28.4028 14.508C29.2148 15.673 30.0073 16.9164 30.7705 18.2282C31.5141 19.5108 32.1892 20.8129 32.8055 22.1248C32.1892 23.4367 31.5141 24.7486 30.7803 26.0311ZM33.9405 24.7583C34.4688 26.0702 34.9189 27.3821 35.2907 28.6549C34.009 28.9681 32.6588 29.2325 31.2597 29.4381C31.7391 28.6842 32.2185 27.9108 32.6686 27.1178C33.1186 26.3346 33.5393 25.5416 33.9405 24.7583ZM24.0196 35.2045C23.1097 34.2647 22.1998 33.2171 21.2996 32.0717C22.1802 32.1108 23.0803 32.1402 23.9902 32.1402C24.9099 32.1402 25.8198 32.1206 26.7102 32.0717C25.8296 33.2171 24.9197 34.2647 24.0196 35.2045ZM16.7403 29.4381C15.351 29.2325 14.0106 28.9779 12.7289 28.6647C13.0909 27.4017 13.541 26.0996 14.0497 24.7975C14.4509 25.5807 14.8716 26.3639 15.3314 27.1472C15.7913 27.9304 16.2609 28.694 16.7403 29.4381ZM23.9707 9.06457C24.8806 10.0044 25.7905 11.052 26.6906 12.1975C25.81 12.1583 24.9099 12.1289 24 12.1289C23.0803 12.1289 22.1704 12.1485 21.2801 12.1975C22.1606 11.052 23.0705 10.0044 23.9707 9.06457ZM16.7305 14.831C16.2511 15.5849 15.7717 16.3583 15.3216 17.1513C14.8716 17.9345 14.4509 18.7178 14.0497 19.501C13.5214 18.1891 13.0713 16.8772 12.6996 15.6045C13.9812 15.301 15.3314 15.0366 16.7305 14.831ZM7.87607 27.0884C4.41256 25.6101 2.17203 23.6716 2.17203 22.1346C2.17203 20.5975 4.41256 18.6492 7.87607 17.1807C8.71749 16.8184 9.63718 16.4954 10.5862 16.1919C11.1439 18.1108 11.8777 20.108 12.7876 22.1541C11.8875 24.1905 11.1635 26.1779 10.6156 28.087C9.64697 27.7835 8.72727 27.4507 7.87607 27.0884ZM13.1398 41.0787C11.8092 40.315 11.232 37.4073 11.682 33.6675C11.7896 32.7472 11.9658 31.778 12.181 30.7891C14.0987 31.2591 16.1924 31.6213 18.3938 31.8563C19.7146 33.6675 21.0844 35.3122 22.4639 36.7514C19.2744 39.7178 16.2805 41.343 14.2454 41.343C13.8051 41.3332 13.4333 41.2451 13.1398 41.0787ZM36.3473 33.6185C36.8072 37.3584 36.2397 40.2661 34.9189 41.0395C34.6254 41.2158 34.2438 41.2941 33.7937 41.2941C31.7684 41.2941 28.7648 39.6787 25.5752 36.7318C26.945 35.2927 28.3147 33.6577 29.616 31.8465C31.8272 31.6115 33.9209 31.2493 35.8386 30.7696C36.0636 31.7584 36.2397 32.708 36.3473 33.6185ZM40.1141 27.0884C39.2727 27.4507 38.353 27.7737 37.404 28.0772C36.8463 26.1583 36.1125 24.1611 35.2026 22.115C36.1027 20.0786 36.8267 18.0912 37.3746 16.1821C38.3433 16.4856 39.2629 16.8184 40.1239 17.1807C43.5874 18.659 45.828 20.5975 45.828 22.1346C45.8182 23.6716 43.5777 25.6199 40.1141 27.0884Z" fill="#232323"/>
<path d="M23.9903 26.6087C26.4597 26.6087 28.4616 24.6055 28.4616 22.1345C28.4616 19.6635 26.4597 17.6604 23.9903 17.6604C21.5209 17.6604 19.519 19.6635 19.519 22.1345C19.519 24.6055 21.5209 26.6087 23.9903 26.6087Z" fill="#232323"/>
</svg>
