<svg width="49" height="48" viewBox="0 0 49 48" fill="none" xmlns="http://www.w3.org/2000/svg">
<path d="M43.3569 24H31.3569V27.4286H39.5854C38.3854 32.5715 34.614 36.8572 29.6426 38.5715L9.92829 18.8572C11.9854 12.8572 17.814 8.57145 24.4997 8.57145C29.6426 8.57145 34.2711 11.1429 37.1854 15.0857L39.7569 12.8572C36.3283 8.2286 30.8426 5.14288 24.4997 5.14288C15.5854 5.14288 8.04258 11.4857 6.15686 19.8857L28.7854 42.5143C37.014 40.4572 43.3569 32.9143 43.3569 24ZM5.64258 24.1715C5.64258 28.9715 7.52829 33.6 11.1283 37.2C14.7283 40.8 19.5283 42.6857 24.1569 42.6857L5.64258 24.1715Z" fill="white"/>
<path d="M24.5 0C11.3 0 0.5 10.8 0.5 24C0.5 37.2 11.3 48 24.5 48C37.7 48 48.5 37.2 48.5 24C48.5 10.8 37.7 0 24.5 0ZM11.1286 37.3714C7.52857 33.7714 5.64286 28.9714 5.64286 24.3429L24.3286 42.8571C19.5286 42.6857 14.7286 40.9714 11.1286 37.3714ZM28.6143 42.3429L6.15714 19.8857C8.04286 11.4857 15.5857 5.14286 24.5 5.14286C30.8429 5.14286 36.3286 8.22857 39.7571 12.8571L37.1857 15.0857C34.2714 11.1429 29.6429 8.57143 24.5 8.57143C17.8143 8.57143 12.1571 12.8571 9.92857 18.8571L29.6429 38.5714C34.6143 36.8571 38.3857 32.5714 39.5857 27.4286H31.3571V24H43.3571C43.3571 32.9143 37.0143 40.4571 28.6143 42.3429Z" fill="#868686"/>
</svg>
