<svg width="32" height="47" viewBox="0 0 32 47" fill="none" xmlns="http://www.w3.org/2000/svg">
<path d="M7.65299 46.556C11.7394 46.556 15.056 43.2395 15.056 39.1531V31.7501H7.65299C3.56654 31.7501 0.25 35.0666 0.25 39.1531C0.25 43.2395 3.56654 46.556 7.65299 46.556Z" fill="#232323"/>
<path d="M0.25 23.653C0.25 19.5665 3.56654 16.25 7.65299 16.25H15.056V31.056H7.65299C3.56654 31.056 0.25 27.7394 0.25 23.653Z" fill="#868686"/>
<path d="M0.25 8.15299C0.25 4.06654 3.56654 0.75 7.65299 0.75H15.056V15.556H7.65299C3.56654 15.556 0.25 12.2394 0.25 8.15299Z" fill="#868686"/>
<path d="M16.4443 0.75H23.8473C27.9338 0.75 31.2503 4.06654 31.2503 8.15299C31.2503 12.2394 27.9338 15.556 23.8473 15.556H16.4443V0.75Z" fill="#232323"/>
<path d="M31.2503 23.653C31.2503 27.7394 27.9338 31.056 23.8473 31.056C19.7609 31.056 16.4443 27.7394 16.4443 23.653C16.4443 19.5665 19.7609 16.25 23.8473 16.25C27.9338 16.25 31.2503 19.5665 31.2503 23.653Z" fill="#868686"/>
</svg>
