<svg width="111" height="111" viewBox="0 0 111 111" fill="none" xmlns="http://www.w3.org/2000/svg">
<path d="M0.5 0.5H110.5V110.5H110.493H110.24H109.987H109.735H109.484H109.233H108.982H108.732H108.482H108.232H107.983H107.734H107.486H107.238H106.991H106.744H106.497H106.251H106.005H105.76H105.515H105.27H105.026H104.782H104.539H104.295H104.053H103.811H103.569H103.327H103.086H102.845H102.605H102.365H102.125H101.886H101.647H101.409H101.171H100.933H100.696H100.459H100.222H99.9858H99.7499H99.5143H99.2791H99.0442H98.8097H98.5756H98.3418H98.1083H97.8752H97.6424H97.41H97.1779H96.9462H96.7148H96.4837H96.253H96.0226H95.7925H95.5628H95.3333H95.1042H94.8755H94.647H94.4189H94.1911H93.9636H93.7364H93.5095H93.283H93.0567H92.8308H92.6052H92.3798H92.1548H91.9301H91.7057H91.4816H91.2577H91.0342H90.811H90.588H90.3654H90.143H89.9209H89.6991H89.4776H89.2563H89.0354H88.8147H88.5943H88.3742H88.1543H87.9347H87.7154H87.4964H87.2776H87.0591H86.8408H86.6228H86.4051H86.1876H85.9704H85.7534H85.5367H85.3202H85.104H84.888H84.6723H84.4568H84.2415H84.0265H83.8118H83.5972H83.3829H83.1689H82.955H82.7414H82.5281H82.3149H82.102H81.8893H81.6768H81.4646H81.2525H81.0407H80.8291H80.6177H80.4065H80.1955H79.9848H79.7742H79.5639H79.3537H79.1438H78.934H78.7244H78.5151H78.3059H78.0969H77.8882H77.6796H77.4712H77.2629H77.0549H76.8471H76.6394H76.4319H76.2246H76.0174H75.8104H75.6037H75.397H75.1906H74.9843H74.7781H74.5722H74.3664H74.1607H73.9553H73.7499H73.5448H73.3397H73.1349H72.9302H72.7256H72.5212H72.3169H72.1128H71.9088H71.7049H71.5012H71.2976H71.0942H70.8909H70.6877H70.4846H70.2817H70.0789H69.8762H69.6737H69.4712H69.2689H69.0667H68.8647H68.6627H68.4608H68.2591H68.0575H67.8559H67.6545H67.4532H67.252H67.0509H66.8499H66.649H66.4481H66.2474H66.0468H65.8462H65.6458H65.4454H65.2451H65.0449H64.8448H64.6448H64.4448H64.2449H64.0451H63.8454H63.6457H63.4461H63.2466H63.0471H62.8477H62.6484H62.4491H62.2499H62.0508H61.8517H61.6526H61.4536H61.2547H61.0558H60.8569H60.6582H60.4594H60.2607H60.062H59.8634H59.6648H59.4662H59.2677H59.0692H58.8708H58.6723H58.4739H58.2756H58.0772H57.8789H57.6806H57.4823H57.284H57.0857H56.8875H56.6893H56.491H56.2928H56.0946H55.8964H55.6982H55.5H55.3018H55.1036H54.9054H54.7072H54.509H54.3107H54.1125H53.9143H53.716H53.5177H53.3194H53.1211H52.9228H52.7244H52.5261H52.3277H52.1292H51.9308H51.7323H51.5338H51.3352H51.1366H50.938H50.7393H50.5406H50.3418H50.1431H49.9442H49.7453H49.5464H49.3474H49.1483H48.9492H48.7501H48.5509H48.3516H48.1523H47.9529H47.7534H47.5539H47.3543H47.1546H46.9549H46.7551H46.5552H46.3552H46.1552H45.9551H45.7549H45.5546H45.3542H45.1538H44.9532H44.7526H44.5519H44.351H44.1501H43.9491H43.748H43.5468H43.3455H43.1441H42.9425H42.7409H42.5392H42.3373H42.1353H41.9333H41.7311H41.5288H41.3263H41.1238H40.9211H40.7183H40.5154H40.3123H40.1091H39.9058H39.7024H39.4988H39.2951H39.0912H38.8872H38.6831H38.4788H38.2744H38.0698H37.8651H37.6603H37.4552H37.2501H37.0447H36.8393H36.6336H36.4278H36.2219H36.0157H35.8094H35.603H35.3964H35.1896H34.9826H34.7754H34.5681H34.3606H34.153H33.9451H33.7371H33.5288H33.3204H33.1118H32.9031H32.6941H32.4849H32.2756H32.066H31.8562H31.6463H31.4361H31.2258H31.0152H30.8045H30.5935H30.3823H30.1709H29.9593H29.7475H29.5354H29.3232H29.1107H28.898H28.6851H28.4719H28.2586H28.045H27.8311H27.6171H27.4028H27.1882H26.9735H26.7585H26.5432H26.3277H26.112H25.896H25.6798H25.4633H25.2466H25.0297H24.8124H24.5949H24.3772H24.1592H23.9409H23.7224H23.5036H23.2846H23.0653H22.8457H22.6258H22.4057H22.1853H21.9646H21.7437H21.5224H21.3009H21.0791H20.857H20.6346H20.412H20.189H19.9658H19.7423H19.5184H19.2943H19.0699H18.8452H18.6202H18.3948H18.1692H17.9433H17.717H17.4905H17.2636H17.0364H16.8089H16.5811H16.353H16.1245H15.8958H15.6667H15.4373H15.2075H14.9774H14.747H14.5163H14.2852H14.0538H13.8221H13.59H13.3576H13.1248H12.8917H12.6582H12.4244H12.1903H11.9558H11.7209H11.4857H11.2501H11.0142H10.7779H10.5413H10.3043H10.0669H9.82918H9.59108H9.3526H9.11376H8.87454H8.63495H8.39498H8.15463H7.91391H7.6728H7.43131H7.18943H6.94717H6.70452H6.46148H6.21805H5.97423H5.73001H5.48539H5.24037H4.99496H4.74914H4.50292H4.25629H4.00926H3.76182H3.51397H3.2657H3.01703H2.76793H2.51842H2.26849H2.01814H1.76737H1.51618H1.26455H1.0125H0.760026H0.507117H0.5V0.5Z" fill="#6D6D6D" fill-opacity="0.1" stroke="#868686"/>
</svg>
