<svg width="1008" height="313" viewBox="0 0 1008 313" fill="none" xmlns="http://www.w3.org/2000/svg">
<path d="M226.782 34.43H133.132V310.592H93.6499V34.43H0V0H226.782V34.43Z" fill="#101010"/>
<path d="M431.415 251.363C427.724 259.228 423.07 267.013 417.452 274.718C411.835 282.262 405.254 288.843 397.711 294.461C390.168 299.918 381.581 304.413 371.951 307.944C362.482 311.315 351.889 313 340.173 313C326.049 313 312.648 310.271 299.968 304.814C287.289 299.196 276.215 291.411 266.746 281.459C257.437 271.347 250.054 259.389 244.597 245.585C239.301 231.781 236.652 216.452 236.652 199.598C236.652 182.904 239.301 167.656 244.597 153.852C250.054 140.047 257.357 128.169 266.505 118.218C275.814 108.105 286.647 100.24 299.005 94.6223C311.364 89.0044 324.284 86.1954 337.765 86.1954C351.247 86.1954 363.926 88.8438 375.803 94.1408C387.84 99.4377 398.273 106.982 407.1 116.773C416.088 126.404 423.15 138.041 428.286 151.685C433.582 165.328 436.23 180.497 436.23 197.19C436.23 200.4 436.07 203.209 435.749 205.617C435.428 207.864 435.107 209.79 434.786 211.395C434.465 213.322 434.144 215.167 433.823 216.933H276.135C276.777 224.798 278.943 232.503 282.635 240.047C286.487 247.591 291.221 254.172 296.839 259.79C302.617 265.408 309.277 269.983 316.821 273.514C324.524 276.885 332.309 278.57 340.173 278.57C347.074 278.57 353.173 277.607 358.47 275.681C363.926 273.594 368.902 271.267 373.396 268.698C377.89 266.13 381.581 263.321 384.47 260.272C387.519 257.061 390.007 254.092 391.933 251.363H431.415ZM337.765 120.866C330.222 120.866 323 122.471 316.098 125.682C309.358 128.892 303.178 133.306 297.561 138.924C292.104 144.542 287.45 151.283 283.598 159.148C279.906 167.014 277.419 175.601 276.135 184.911H396.748C394.18 165.168 387.359 149.598 376.285 138.202C365.371 126.645 352.531 120.866 337.765 120.866Z" fill="#101010"/>
<path d="M569.122 86.1954C581.319 86.1954 592.554 88.2821 602.826 92.4554C613.258 96.4682 622.166 101.926 629.549 108.828C636.931 115.73 642.629 123.836 646.642 133.145C650.814 142.295 652.901 152.166 652.901 162.76V310.592H625.937L616.067 286.034C611.091 291.331 605.474 295.905 599.215 299.758C593.597 303.449 586.696 306.579 578.511 309.148C570.325 311.716 560.615 313 549.38 313C538.146 313 528.034 311.315 519.047 307.944C510.059 304.413 502.355 299.597 495.935 293.498C489.515 287.398 484.46 280.336 480.768 272.31C477.237 264.284 475.472 255.697 475.472 246.548C475.472 235.954 477.558 226.323 481.731 217.655C486.064 208.988 493.447 201.444 503.88 195.023C514.472 188.603 528.917 183.707 547.214 180.336C565.51 176.805 588.461 175.039 616.067 175.039V162.76C616.067 151.524 611.653 141.733 602.826 133.386C594.159 125.039 582.924 120.866 569.122 120.866C555.319 120.866 545.127 123.755 538.547 129.534C531.967 135.152 527.392 142.937 524.824 152.888H485.342C486.626 143.739 489.435 135.152 493.768 127.126C498.102 118.94 503.799 111.797 510.861 105.698C517.923 99.5982 526.269 94.8631 535.899 91.4923C545.529 87.961 556.603 86.1954 569.122 86.1954ZM549.38 278.57C559.171 278.57 568.159 277.045 576.344 273.995C584.69 270.785 591.752 266.772 597.529 261.957C603.307 256.981 607.801 251.443 611.011 245.344C614.382 239.244 616.067 233.065 616.067 226.805V209.469C593.758 209.469 575.862 210.432 562.381 212.358C548.899 214.124 538.386 216.773 530.843 220.304C523.46 223.675 518.565 227.768 516.158 232.583C513.75 237.238 512.546 242.695 512.546 248.955C512.546 256.499 515.837 263.321 522.417 269.421C529.158 275.52 538.146 278.57 549.38 278.57Z" fill="#101010"/>
<path d="M933.851 86.1954C943.641 86.1954 953.03 88.2821 962.018 92.4554C971.005 96.4682 978.95 102.487 985.851 110.513C992.753 118.378 998.129 128.009 1001.98 139.405C1005.99 150.641 1008 163.322 1008 177.447V310.592H970.925V177.447C970.925 158.667 966.672 144.542 958.166 135.072C949.659 125.601 939.147 120.866 926.628 120.866C914.109 120.866 903.115 125.922 893.646 136.035C884.337 146.147 879.683 159.951 879.683 177.447V310.592H842.849V177.447C842.849 158.667 838.515 144.542 829.849 135.072C821.342 125.601 810.83 120.866 798.311 120.866C792.373 120.866 786.514 122.231 780.737 124.959C775.119 127.688 770.144 131.621 765.81 136.757C761.477 141.893 758.026 147.913 755.458 154.815C752.89 161.717 751.606 169.261 751.606 177.447V310.592H714.532V88.6031H741.736L751.606 113.402C755.298 108.426 759.711 104.012 764.847 100.16C769.502 96.4682 775.119 93.2579 781.7 90.5292C788.28 87.64 796.305 86.1954 805.774 86.1954C817.009 86.1954 826.478 88.2821 834.182 92.4554C841.886 96.4682 848.225 100.963 853.201 105.938C859.139 111.877 863.874 118.458 867.405 125.682C871.738 118.458 877.035 111.877 883.294 105.938C888.911 100.963 895.733 96.4682 903.757 92.4554C911.943 88.2821 921.974 86.1954 933.851 86.1954Z" fill="#101010"/>
</svg>
