<svg width="49" height="48" viewBox="0 0 49 48" fill="none" xmlns="http://www.w3.org/2000/svg">
<g clip-path="url(#clip0_96_2793)">
<rect x="0.5" width="48" height="48" rx="24" fill="#DFDFDF"/>
<path d="M-11.1019 38.6003C-13.1287 39.5615 -18.4931 43.8888 -19.5263 45.1708C-20.5993 46.4529 -20.9171 44.4497 -19.8045 41.1243C-18.9305 38.44 -16.7049 34.7939 -12.9697 31.6689C-10.7843 29.866 -5.97588 27.2619 -3.03548 25.7392C-2.43929 25.4186 5.26971 22.1333 12.1443 20.4907C12.7405 20.3303 11.4291 21.4923 11.2303 22.1333C10.1971 25.1782 -10.4267 38.2395 -10.4267 38.2395L-11.1019 38.6003ZM17.9459 75.34C18.3035 77.5035 17.9857 77.6638 15.7605 77.9443C13.5351 78.2248 11.9059 77.3833 11.3099 76.8225C10.7137 76.2613 10.5947 75.0195 11.1907 73.8978C11.5485 73.1765 11.9061 72.9361 12.1049 72.0547C12.3035 71.2134 12.4625 71.013 12.6213 70.6925C12.7801 70.4118 12.8201 70.1313 12.8597 68.1683C12.8995 66.2052 12.8597 62.519 13.0585 60.9566C13.2573 59.3541 20.1319 61.6777 20.1319 61.6777C20.1319 61.6777 18.5025 65.7644 18.0655 66.766C17.6283 67.7678 17.6681 69.6907 17.6681 70.0914C17.6681 70.4921 17.5093 71.2933 17.3899 71.3334C17.2707 71.3733 17.7873 72.415 17.5487 73.0162C17.3897 73.5771 17.9063 75.0195 17.9459 75.34ZM20.5687 14.0802C20.3301 12.5577 20.5687 9.55254 20.8865 9.072C21.8801 7.70965 27.1253 7.54954 28.2381 9.15206C28.7149 9.87316 28.6751 11.5559 28.5957 12.6378C28.5163 13.7194 28.2381 16.0433 28.1983 16.8047C28.1587 17.3657 22.3967 18.2469 21.1251 16.7244C20.7673 16.3239 20.5687 14.0802 20.5687 14.0802ZM32.2515 71.4536C34.6755 73.2166 36.5431 73.537 37.7749 74.1781C39.0067 74.8193 38.6889 76.0613 36.6225 76.4218C34.9535 76.7422 32.3309 76.1012 30.5825 76.1012C28.8341 76.1012 24.9397 76.3016 23.9065 75.5805C22.7145 74.7393 23.2309 73.1765 23.2309 73.1765C23.5489 72.2952 24.3435 70.3318 24.1051 68.7293C23.8667 67.1267 23.5487 66.2453 22.9527 64.7628C22.3567 63.2805 21.9197 59.6346 22.4761 59.4342C23.0325 59.2337 22.8733 59.4342 23.5887 59.5943C24.3039 59.7544 25.0987 59.995 26.6485 59.995C28.1983 59.995 29.9069 59.7544 30.5031 59.6344C31.0991 59.5142 31.5759 59.3939 31.3771 60.636C31.1785 61.878 30.5825 64.2018 30.5427 66.0048C30.5031 67.8077 30.5031 69.8912 30.6223 70.2517C30.7413 70.6123 31.6157 71.013 32.2515 71.4536Z" fill="#4D4D4D"/>
<path d="M23.8037 18.0352C19.4292 21.8383 10.9582 22.8789 -1.60873 27.7627C-4.83012 29.0036 -13.4202 32.7265 -15.4883 36.6096C-8.52869 32.5666 -5.94361 38.1308 -5.38696 43.8552C-4.87014 49.2194 -2.20541 52.0217 4.63489 51.8613C11.6741 51.7014 13.8217 55.8244 15.7702 60.6684C19.5483 42.1338 25.5933 38.5311 29.4905 35.3687C37.7627 28.6033 27.5817 16.674 23.8037 18.0352Z" fill="#DFDFDF"/>
<path d="M23.7447 18.0962C13.2621 21.7866 2.8985 22.7093 -9.29134 30.2908C-12.1899 32.0959 -18.3048 36.1873 -19.4961 44.0097C-15.0491 39.0354 -4.76501 32.7779 7.82212 28.8067C14.1752 26.8008 18.8211 25.4772 24.4593 23.2709C24.0624 20.7035 24.0624 19.7006 23.7447 18.0962Z" fill="#DFDFDF"/>
<path d="M37.1577 39.9995C37.1577 39.9995 36.4043 42.6022 34.8975 43.4431C34.8975 43.4431 33.7872 43.8436 31.5668 42.6024C30.9323 42.2421 30.4565 41.0009 30.496 40.6003C30.5357 39.6392 31.1305 39.1989 31.1305 39.1989C31.1305 39.1989 31.7651 38.1177 32.5183 38.1578C33.2719 38.1978 34.5408 38.3179 34.9374 37.9575C35.2941 37.5571 37.2371 38.6782 37.1577 39.9995ZM20.9792 14.8146C20.9792 14.8146 20.8208 16.8568 20.5431 18.1379C20.5034 18.3783 19.314 18.4982 18.4414 18.8588C20.1069 23.6634 30.1392 23.6233 31.4478 21.2611C30.8134 20.8208 29.5444 20.14 28.9497 19.8998C28.3548 19.6594 28.3945 19.6995 28.3548 18.5784C28.3153 17.4572 28.2358 15.3753 28.1564 14.8146C28.0772 14.254 21.9308 14.254 20.9792 14.8146Z" fill="#4D4D4D"/>
<path d="M21.3951 14.905C21.3951 14.905 21.3951 16.0554 21.2763 17.166C21.2368 17.6817 21.1971 17.999 21.118 18.3957C21.0784 18.6339 22.4643 19.5856 22.8603 21.6881C24.761 25.9324 29.1565 23.8301 30.9779 21.8071C30.3443 21.3707 29.3148 20.7757 28.1269 20.2997C27.5328 20.0616 27.8101 19.5461 27.7706 18.4354C27.7309 17.3248 27.5725 15.6982 27.4934 15.1033C27.4139 14.5083 22.3455 14.3496 21.3951 14.905Z" fill="#4D4D4D"/>
<path d="M20.9384 14.8225C20.9384 14.8225 20.899 15.5569 20.7812 16.4134C21.2923 16.9435 21.9609 17.6779 22.4723 18.1267C22.8262 18.4531 23.6911 18.4123 24.4778 18.4123C25.1856 18.4123 25.8148 18.4938 26.0901 18.3307C26.7195 18.0043 27.6238 17.1886 28.135 16.5766C28.0958 15.8425 28.0564 15.149 28.0172 14.8225C27.9775 14.2514 21.8821 14.2514 20.9384 14.8225Z" fill="#4D4D4D"/>
<path d="M24.6263 17.9278C24.1492 17.9278 23.5926 17.8879 23.1555 17.8077C22.9567 17.7679 22.758 17.6478 22.599 17.5676C22.3207 17.3674 22.0425 17.1274 21.7248 16.8871C21.0886 16.4069 21.049 16.1266 21.049 16.0068C21.3273 13.485 20.9694 11.3637 20.9694 11.3637C20.9694 11.3637 20.6911 10.2829 22.2015 10.0027C23.7119 9.72251 24.6261 9.68262 24.6261 9.68262C24.6261 9.68262 25.5801 9.68262 27.0507 10.0027C28.5611 10.2829 28.2828 11.3637 28.2828 11.3637C28.2828 11.3637 27.9251 13.485 28.2034 16.0068C28.2034 16.1266 28.1638 16.4069 27.5276 16.8871C26.9711 17.2874 26.534 17.7276 26.0969 17.8077C25.6595 17.8879 25.103 17.9278 24.6263 17.9278Z" fill="#4D4D4D"/>
<path d="M24.5739 8.6731C21.9546 8.6731 21.4384 9.39368 20.6843 10.1945C20.5257 10.3946 20.6446 11.5957 20.9226 14.1581H21.2798C21.2798 14.1581 21.0415 13.4373 21.0812 12.5966C21.121 11.7559 21.2798 11.796 21.1605 11.5957C21.0019 11.3553 20.6843 10.955 21.3988 10.5548C22.1132 10.1544 23.2244 10.875 24.5739 10.9151C25.9233 10.875 27.0743 10.1544 27.7886 10.5548C28.5029 10.955 28.1855 11.3553 28.0269 11.5957C27.8681 11.8359 28.0664 11.7557 28.1062 12.5966C28.1457 13.4373 27.9076 14.1581 27.9076 14.1581H28.2648C28.5029 11.5957 28.6617 10.4748 28.5426 10.2745C27.8679 9.39368 27.1933 8.713 24.5739 8.6731ZM37.155 40.2219C37.155 40.2219 36.401 42.6641 34.9326 43.5048C34.615 43.3448 34.6547 43.1046 34.3769 42.7441C34.2974 42.6242 34.0195 42.5438 33.9006 42.4239C33.7816 42.3038 33.8213 42.1035 33.6228 41.9435C33.464 41.7834 33.3449 41.9034 33.1861 41.7833C33.0275 41.6233 32.9876 41.4231 32.8687 41.3032C32.7892 41.223 32.4718 41.1831 32.3925 41.1029C32.194 40.9026 30.4479 40.5423 30.5272 40.1419C30.6858 39.5412 31.0034 39.1009 31.0034 39.1009C31.0034 39.1009 31.7575 37.9799 32.5114 38.0198C33.2654 38.0599 33.9799 38.2201 34.3769 37.8598C34.8135 37.4592 37.2743 38.9407 37.155 40.2219Z" fill="#4D4D4D"/>
<path d="M32.0313 22.4102C32.0313 22.4102 34.5502 21.8097 36.2696 23.4508C37.989 25.1317 37.8689 27.2127 37.3493 28.4933C37.789 29.0136 38.5887 30.4542 37.989 32.1752C40.6279 34.4163 39.4684 37.8583 37.1094 40.1395C37.1094 40.1395 36.5496 38.0584 34.3105 37.9383C34.3904 37.138 32.2313 36.4975 33.2309 34.4163C31.7115 34.0562 31.7516 33.0156 31.5117 31.7351C31.3117 30.4542 32.0313 22.4102 32.0313 22.4102Z" fill="#4D4D4D"/>
<path d="M30.9899 23.5776C30.9899 23.5776 33.9156 22.0991 35.639 23.7775C37.3622 25.4559 36.8811 27.2941 36.3603 28.5729C36.8011 29.0922 37.8431 30.5711 37.2019 32.3291C37.0816 32.7288 36.1999 32.7288 35.5585 33.7678C37.1615 32.8485 38.1636 33.0884 38.5243 34.2471C39.0854 36.0454 37.8429 38.2033 36.7609 39.4023C36.7609 39.3622 36.7208 39.3222 36.7208 39.2824C36.5606 39.882 36.3601 41.0407 35.1579 42.3194C34.5566 42.9588 34.0757 42.879 33.3944 42.7191C32.5929 42.5192 32.3124 42.1593 31.1902 41.5602C30.549 41.2006 30.9097 40.7609 30.9097 40.4013C30.9097 40.3214 30.9897 40.2014 31.1102 40.0417C31.1902 39.8417 31.4307 39.5223 31.7913 39.1625C31.7913 39.1625 32.3124 38.4433 33.074 38.4831C33.8355 38.5231 34.6369 38.3634 34.8374 38.1635C34.8374 36.7649 33.2344 36.7248 33.7953 34.3272C33.8355 34.2073 34.036 34.0074 34.677 33.9275C33.7151 33.7276 33.2743 33.6876 32.5929 33.0484C32.1121 32.6089 31.7514 32.0494 31.631 31.3301C31.3907 30.0914 30.9899 23.5776 30.9899 23.5776Z" fill="#4D4D4D"/>
<path d="M22.6202 21.0417C22.3825 20.7207 21.1542 19.1164 18.8162 18.4746C18.1425 18.274 17.7067 18.8356 17.0332 19.2367C16.835 19.1164 15.9633 18.7153 15.4878 18.9959C15.0123 19.2765 14.6954 19.5575 14.2198 19.758C13.9819 19.6376 13.3481 19.6376 12.8329 19.8381C12.3178 19.9986 11.5252 20.3595 10.7723 21.4024C10.2969 23.1272 19.1728 21.8435 19.1728 21.8435L22.6202 21.0417Z" fill="#4D4D4D"/>
<path d="M22.7859 21.0955C21.5154 20.6563 21.714 19.1795 18.8954 18.9401C18.3396 18.9001 17.9823 19.339 17.5853 19.6185C17.7839 19.8182 17.9823 20.1374 18.1014 20.4566C17.7442 20.0577 17.109 19.5385 16.4736 19.4188C15.8782 19.2993 15.4812 19.7382 14.8461 20.0577C14.9649 20.1772 15.0842 20.3769 15.2429 20.6165C14.687 20.2573 14.2902 20.1376 13.536 20.4169C13.0199 20.5764 12.0275 21.0155 11.2732 22.0934C10.7969 23.8098 19.2922 21.8937 19.2922 21.8937L22.7859 21.0955Z" fill="#DFDFDF"/>
<path d="M30.2423 21.6686C30.2423 21.6686 30.2423 21.2131 30.2025 20.7992C30.2025 20.7164 29.8842 20.5093 29.8842 20.4266L29.8047 20.3436C29.8047 20.3436 30.4414 19.971 30.9189 20.1782C31.436 20.3436 31.7146 21.0476 31.7146 21.0476C32.6299 20.7164 32.7094 21.0891 33.1472 21.5859C34.1024 21.3787 34.2216 21.7513 34.8186 22.6624C34.8186 22.6624 34.1024 22.5382 32.7096 22.7864C31.3565 22.9934 30.2423 21.6271 30.2423 21.6686Z" fill="#4D4D4D"/>
<path d="M30.1415 21.4662C30.1415 21.4662 30.3779 21.2603 30.299 21.2191C30.7324 20.9722 31.3237 20.6842 31.5996 21.4662C32.5061 21.1369 32.6243 21.5897 33.0577 22.0838C34.1612 21.5487 34.2399 22.207 34.3189 22.4952C33.9642 22.4952 33.4521 22.5364 32.7425 22.6187C31.4027 22.8246 30.102 21.425 30.1415 21.4662Z" fill="#DFDFDF"/>
<path d="M16.6324 20.4519C16.6324 20.4519 18.8971 21.2521 20.8042 21.1321C22.7113 20.9722 25.9692 20.812 27.7173 21.8526C27.7173 21.8526 29.5053 21.2121 31.174 21.6524C32.843 22.0925 35.9021 24.974 34.9884 28.0154C34.9089 28.2156 34.3923 28.5357 33.7964 28.7359C33.7964 28.7359 34.1144 30.0965 33.5581 31.217C33.0017 32.2976 31.7701 34.3787 31.7303 37.26C31.6907 37.7402 31.6113 38.7406 31.5318 39.2208C28.4326 39.1009 23.6649 37.9402 18.9766 38.0203C19.0162 37.5003 19.056 37.18 19.0958 36.6597H19.2148C18.9764 35.339 18.8971 34.6586 18.6585 33.6582C17.1487 32.6978 15.5594 31.5773 14.2088 29.4562C12.8976 27.335 16.6324 20.4519 16.6324 20.4519ZM31.9687 42.0624C31.9687 42.0624 34.4321 50.9468 31.5318 54.6687C31.5318 54.6687 31.9687 56.3894 30.9755 58.2304C30.8165 59.0306 30.6177 59.7511 30.4987 60.5513C29.9822 63.8729 29.1079 65.2736 28.8696 70.5961L26.4855 70.5562C26.4855 70.5562 26.2074 66.7144 25.3731 64.6734C24.8966 63.513 23.0288 61.952 23.1086 60.3914C23.188 59.1907 23.4264 58.1903 25.4529 56.5894C25.6117 54.2684 23.3072 52.0671 23.6649 43.423L31.9687 42.0624Z" fill="#4D4D4D"/>
<path d="M31.2199 41.7564C31.8567 45.8489 33.3294 51.9073 30.6626 54.8762C30.82 55.629 30.8334 56.4052 30.7023 57.1631C30.6227 57.6445 30.4635 58.1661 30.2645 58.7277C29.8665 59.6907 29.7072 61.095 29.5878 61.9374C29.0704 65.2675 29.0704 65.4283 28.8316 70.7644L26.4432 70.7242C26.4432 70.7242 26.1646 66.8725 25.3288 64.8265C24.8514 63.663 23.8562 62.6599 23.7766 61.0951C23.6971 59.8916 24.5329 57.4843 26.5232 57.5645C26.4038 52.7098 24.1747 53.6726 23.5777 43.5619L31.2199 41.7564ZM16.5724 20.4519C16.5724 20.4519 17.448 20.7328 18.4032 20.813C19.3586 20.8931 20.3935 20.813 21.3088 20.7728C23.2193 20.6124 25.926 20.4117 27.7171 21.4549C27.7171 21.4549 28.7122 21.1338 29.7869 21.214C30.2645 21.2542 30.7423 21.6554 31.2994 21.816C33.0507 22.2572 34.7225 25.1861 33.966 27.8342C33.8865 28.035 33.3292 27.8342 32.6923 28.035C32.8115 28.5967 32.8915 29.8806 32.2544 31.2447C31.5779 32.609 30.7023 34.3743 30.8613 37.7446C26.682 37.5439 24.8114 37.2632 20.6717 37.0625C20.3135 35.5778 20.0746 34.0934 20.0349 33.3311C20.5922 33.0502 20.9103 32.8097 21.3484 32.3281C20.1545 32.5288 19.6767 32.4485 18.9601 32.0472C18.2437 31.646 16.97 30.3621 16.3332 29.5196C16.2537 29.4392 15.8159 30.7631 14.8209 30.8035C14.4625 30.2819 15.975 28.7973 15.6963 28.2357C14.7015 26.1893 16.5724 20.4519 16.5724 20.4519Z" fill="#4D4D4D"/>
<path d="M31.5364 38.3693C31.5364 38.3693 31.6165 39.8111 31.6165 40.1715C31.6165 40.572 31.9374 41.7733 31.9773 42.334C31.5364 43.0949 29.612 44.817 26.1239 45.4578C22.6759 46.1786 18.1055 40.7723 18.1055 40.7723C18.2257 40.2517 18.6267 38.7297 18.9074 37.9289C18.9475 37.8489 19.0276 37.6485 19.0276 37.5685C19.3886 37.0479 31.5364 38.3693 31.5364 38.3693Z" fill="#4D4D4D"/>
<path d="M30.686 38.6083C30.686 39.6052 30.8446 40.3231 30.9638 40.9611C31.1622 42.1175 31.4796 42.8752 31.4796 43.6328C31.4796 45.9454 28.4635 45.5466 25.9233 45.6265C22.5103 46.3444 19.6133 40.9611 19.6133 40.9611C19.8514 40.0439 20.0102 39.0073 20.3673 38.1299C20.4069 37.6514 20.4864 37.0533 20.5259 36.7742C25.3677 36.7742 28.7807 37.0533 30.7651 37.2524C30.8446 37.6912 30.7653 38.4488 30.686 38.6083Z" fill="#4D4D4D"/>
<path d="M26.7954 43.7263C26.7954 43.7263 24.679 38.9964 18.3294 40.3996C16.8121 44.6884 14.7753 49.6188 16.0932 54.9499C14.7753 56.7537 13.2578 57.7559 13.2578 61.0827C13.2578 64.4096 13.4176 64.9709 13.4176 64.9709L18.0898 65.2115C18.0898 65.2115 19.6073 63.2476 20.2062 61.123C20.366 60.5216 20.5258 59.4395 20.406 58.1969C20.5656 57.9564 21.2445 57.3954 21.3245 56.313C21.3245 56.313 23.6007 55.1106 24.9186 52.1846C26.1567 49.5385 25.8371 47.2538 26.7954 43.7263Z" fill="#4D4D4D"/>
<path d="M26.7974 43.6842C26.6778 43.2447 25.0808 38.9283 19.1722 40.2071C15.6991 49.4795 16.9766 53.3164 17.4954 54.9948C15.1399 57.9922 14.0621 58.6317 14.5413 64.7068H17.6554C19.0924 62.4287 19.4119 61.5893 19.4917 58.5919C19.4917 58.472 19.0527 58.8316 18.7332 59.2313C18.9729 57.9924 19.6514 57.7526 20.1704 56.9933C20.41 56.6734 20.6095 56.1939 20.6095 55.5544C23.404 53.676 24.442 51.3179 25.0408 48.8799C25.52 47.2014 26.0788 44.4436 26.7974 43.6842Z" fill="#4D4D4D"/>
<path d="M17.0496 37.2787C17.0496 37.2787 18.1226 37.3186 19.0763 37.6392C19.9902 37.9596 19.9902 38.1598 20.3478 38.5607C20.7054 38.9615 21.5795 39.5622 21.4207 40.163C21.3411 40.4836 21.1425 40.5637 20.8644 40.8441C20.7452 40.9643 19.8708 41.9257 19.6723 42.0459C19.5531 42.1259 19.3941 42.2463 19.2749 42.3263L18.6789 42.727C18.2816 42.9274 18.0034 43.0476 17.5664 43.0074C17.5664 43.0074 16.5731 42.9673 15.9371 42.2864C15.9371 42.2864 15.8577 41.9658 16.0167 41.8057C16.0167 41.8057 15.1822 41.0845 14.9438 40.6038C14.7052 40.1233 14.7052 39.4422 14.8644 39.0817C14.9438 38.7208 16.4933 37.7193 17.0496 37.2787ZM18.0432 76.2584L17.924 77.2601C17.924 77.2601 17.5664 77.7007 14.9042 77.6607C12.2022 77.6206 11.487 76.7794 11.2486 76.3387L11.0898 75.297C11.0898 75.297 11.6064 74.5359 11.7256 74.5359C12.5997 74.6159 15.5799 75.8178 17.6462 76.1382C17.8444 76.1382 17.884 76.2183 18.0432 76.2584ZM23.8046 74.2153C23.8046 74.6558 23.7648 74.6558 23.7648 75.0966C24.2415 75.4571 25.4339 75.6575 27.6985 75.6172C30.9965 75.5372 34.0561 76.6189 37.791 75.9777L37.8308 75.2567L37.4732 75.2168L24.2415 74.135L23.8046 74.2153Z" fill="#4D4D4D"/>
<path d="M26.6516 75.6693H27.6471C29.7975 75.5891 31.8282 76.0707 34.0181 76.1911C35.1729 76.1509 36.6064 75.8699 36.487 75.027L25.1784 74.0635C24.5014 74.8262 25.0189 75.4685 26.6516 75.6693ZM13.6706 58.7697C14.029 59.0105 16.458 60.4557 20.4 60.2549C20.3203 61.0176 20.3602 62.5029 18.6082 65.112C17.7322 66.3965 16.9754 68.6446 16.8163 71.4946C16.8562 72.1369 17.2145 72.6988 16.7367 73.5419C16.8959 74.0635 17.533 75.1072 17.8516 75.7495C18.1701 76.392 18.3294 77.1144 16.2189 77.1546C14.0687 77.1946 10.6044 76.9538 11.0823 75.268C11.3214 74.3849 11.9982 73.4617 12.078 73.1002C12.1575 72.739 12.1575 71.6553 12.8343 70.9326C13.4318 68.9256 13.2325 66.9988 13.1133 65.1924C12.9141 63.3056 12.8742 60.2951 13.6706 58.7697ZM17.3738 26.0543C20.201 22.2407 17.8117 19.1902 13.2726 20.1133C11.4409 20.4745 9.60931 21.7592 9.48967 24.0873C8.89245 24.1675 7.53867 24.2477 6.86168 26.7366C6.34422 28.6634 6.06545 29.0246 5.14938 29.9879C4.55215 30.6704 5.18926 32.0753 5.62716 33.079C7.10058 36.5312 11.6399 36.8522 14.706 39.4615C15.7413 39.1805 16.8163 38.0165 17.1349 37.2539C14.5466 34.1627 15.104 32.9586 14.0687 31.353C15.1837 30.9514 17.7322 29.386 17.3738 26.0543Z" fill="#4D4D4D"/>
<path d="M16.7771 25.8593C16.9357 25.6177 17.2136 25.0948 17.3328 24.8935C17.3726 24.8532 17.8091 25.6177 17.8488 25.5776C18.9203 23.807 19.1982 21.2319 17.9677 20.9905C17.6898 20.9502 17.174 20.8297 16.7374 20.6685C15.9437 20.3868 15.2294 20.3868 13.9592 20.6284C12.2129 20.9502 10.4666 22.2377 10.4666 24.0887C10.4666 24.2094 11.6967 24.5715 12.0541 26.0604C11.4586 25.2153 10.4267 24.2898 9.19637 25.0946C7.88657 25.9395 8.56135 27.8709 6.81508 29.8826C6.21961 30.5667 6.29911 31.3715 6.93394 32.9809C7.96588 35.5159 12.8477 36.8839 15.5069 39.2981C16.1419 39.0164 16.5784 38.3726 16.896 37.8898C15.11 35.9987 14.3954 34.2282 13.8797 32.9406C13.2446 31.4519 12.5301 30.607 11.141 29.48C11.8555 29.7617 12.4112 30.0434 12.7285 30.2848C13.0856 30.5262 13.6016 30.5665 14.078 30.4055C15.7849 29.8024 16.6978 27.3881 16.7771 25.8593Z" fill="#4D4D4D"/>
<path d="M34.1136 26.4299C33.9945 27.9525 32.8828 27.1912 32.2874 26.9107C31.0962 26.3897 29.905 26.0291 28.5154 26.0291C27.1258 26.0291 25.3392 26.1493 23.7909 26.5501C21.647 27.1511 21.0115 27.1111 20.0587 26.6301C19.106 26.1092 17.4386 24.8269 17.4386 24.8269C17.4386 24.8269 17.3988 25.2276 17.7959 25.7486C18.3119 26.3897 19.4635 27.1912 21.0117 27.7119C21.7661 27.9525 22.3617 27.792 23.0368 27.6319C26.5703 26.7503 30.3023 26.59 33.4388 28.5134C33.5976 28.5935 34.1535 28.3531 34.3917 27.9925C34.7091 27.4717 34.1136 26.4299 34.1136 26.4299Z" fill="#4D4D4D"/>
<path d="M27.4777 10.0033C27.3595 9.64565 26.4925 9.00952 24.4832 9.00952C22.316 9.00952 21.6856 9.68526 21.6463 10.0429C21.6463 10.1622 21.4887 11.4342 21.4492 11.9507C21.4492 11.9507 21.4492 12.5867 21.4885 13.5405C21.528 14.1764 21.6856 14.5341 21.7643 15.3688C21.8431 16.243 22.0796 16.7995 22.513 17.5151C22.7101 17.6341 22.8675 17.7535 23.0647 17.7933C23.8527 17.9522 25.2318 17.992 25.9804 17.7933C26.4137 17.6741 26.9654 16.9189 27.0836 16.2432C27.2411 15.4086 27.3987 14.8123 27.4382 14.2958C27.5169 13.7793 27.5564 12.6265 27.5957 12.3084C27.7141 11.4342 27.5169 10.0827 27.4777 10.0033Z" fill="#4D4D4D"/>
<path d="M20.2812 35.5961C20.2812 35.8797 23.3945 37.4592 25.1106 37.7834C26.8269 38.1073 30.419 37.7834 30.9776 37.6619L30.8977 38.229C30.8977 38.229 26.6272 38.8771 23.3545 37.986C20.0816 37.0949 20.4409 36.8923 20.4409 36.8923L20.2812 35.5961Z" fill="#4D4D4D"/>
<path d="M16.7113 20.2837C18.0184 21.0657 19.8404 20.86 20.5136 20.8188C20.6721 20.8188 22.2565 20.5306 22.3357 20.5716C22.4939 20.6129 22.4939 20.7363 22.4939 20.7363C22.4939 20.7363 21.8999 21.0655 20.5533 21.1477C19.2858 21.23 17.7807 21.1477 16.9491 20.7363C15.9587 20.2837 16.7113 20.2837 16.7113 20.2837ZM30.178 21.0657C30.4156 21.2302 31.9604 21.8477 32.6338 22.5885C33.2278 23.2472 32.9111 23.206 32.7921 23.0413C32.6338 22.8354 31.4058 21.9712 30.9305 21.7655C30.4553 21.5597 29.861 21.1892 29.861 21.1069C29.861 21.0247 30.178 21.0657 30.178 21.0657Z" fill="#4D4D4D"/>
<path d="M16.4678 37.6288C17.6446 37.5474 18.862 37.8327 19.6329 38.6475C20.0387 39.055 20.688 39.5031 20.6069 39.9106C20.6069 40.0328 20.3632 40.3589 20.1606 40.6033C20.0389 40.7662 19.6738 41.1329 19.5518 41.2553C19.3897 41.3775 18.8215 41.8258 18.6998 41.9072C18.5781 41.9889 18.4157 42.1927 18.294 42.2333C17.8884 42.4372 17.442 42.2741 17.0362 42.0705C16.6306 41.8666 17.1175 41.8258 16.671 41.4999C15.5755 40.7258 14.9667 40.1958 15.4132 38.6883C15.4536 38.403 15.8999 38.0769 16.4678 37.6288Z" fill="#4D4D4D"/>
<path opacity="0.4" d="M6.31215 28.5915C2.73067 30.0328 -6.38227 34.5968 -8.96875 35.998C-6.8199 37.3591 -5.82508 40.6418 -5.50663 43.9647C-5.46697 44.285 -5.42712 44.5653 -5.38726 44.8855C-5.3476 45.1658 -5.30775 45.3659 -5.26809 45.4861C-5.26809 45.5262 -5.26809 45.6062 -5.22824 45.6461C-2.8803 39.2007 5.51603 32.3949 5.83448 31.8744C5.99351 31.6342 5.6354 30.5933 6.19258 29.5927C6.909 28.3112 8.30197 27.7507 6.31215 28.5915ZM14.828 58.8174C16.6584 55.1343 16.6983 51.6112 16.6584 47.4876C16.6584 45.766 17.892 43.3239 17.2555 44.0046C14.8677 46.6867 8.85897 51.7313 4.52141 52.0113C10.6099 51.8112 12.9974 54.8939 14.828 58.8174Z" fill="#4D4D4D"/>
<path d="M-12.4785 39.2982C-10.1933 37.6629 1.63422 31.401 4.48086 30.5233C7.32731 29.6059 6.44529 28.5289 6.44529 28.5289C6.44529 28.5289 -5.1015 33.4747 -11.9974 37.7426" fill="#4D4D4D"/>
<path opacity="0.4" d="M21.0373 27.7427C20.1223 27.3811 19.4063 28.4659 19.645 29.5105C19.8838 30.555 22.032 31.7199 21.9125 35.5366C21.833 38.6703 21.1566 39.9557 21.1566 39.9557L19.645 38.0275C19.645 38.0275 19.4063 33.6885 18.8891 33.0457C18.3722 32.4029 16.741 31.2379 16.1045 30.6353C15.468 30.0326 16.8205 29.2292 16.741 28.1042C16.6615 27.0196 17.4173 24.8502 17.4173 24.8502L21.0373 27.7427ZM26.567 44.8568C26.4875 47.8698 27.1638 52.3293 27.4422 54.4586C27.7207 56.5878 28.0787 56.7485 27.4422 57.7128C26.8057 58.6368 25.9703 60.1634 25.9703 60.1634L23.2253 59.9222C23.2253 59.9222 25.4133 57.11 25.5325 56.5878C25.6518 56.0657 24.4186 52.0884 24.4186 52.0884L26.567 44.8568ZM21.2762 16.7349C21.8332 17.9801 22.5093 18.5426 23.5833 18.9043C24.2198 19.1454 26.726 19.4669 27.7207 18.3418C28.1581 17.8195 27.8796 16.4135 27.8796 16.4135L25.6121 18.2614L22.549 17.699L22.191 16.775L21.2762 16.7349Z" fill="#4D4D4D"/>
<path d="M21.4385 19.6106C22.4833 20.2651 25.0952 20.881 25.8184 20.9965C26.5416 21.1503 27.7069 20.2651 28.2695 20.0341C28.8724 19.7646 29.9171 19.6106 31.1225 20.6501C31.243 20.7655 30.8412 21.266 30.8412 21.266C30.8009 21.2274 30.5599 21.2274 30.2383 21.0734C29.9169 20.9196 29.6356 20.8039 29.1535 20.8425C27.1443 21.0734 26.8229 21.7279 25.055 21.3427C23.287 20.9576 22.8449 20.6499 21.1172 20.7268" fill="#DFDFDF"/>
<path fill-rule="evenodd" clip-rule="evenodd" d="M23.7124 20.64C22.8385 20.3827 21.9039 20.0507 21.3603 19.7005L21.5316 19.4424C22.033 19.7655 22.9274 20.087 23.802 20.3445C24.6722 20.6008 25.4996 20.7871 25.853 20.8451C25.8557 20.8456 25.8585 20.8461 25.8612 20.8467C26.0042 20.878 26.1825 20.8586 26.3903 20.7954C26.5963 20.7327 26.8174 20.6315 27.0398 20.5146C27.2321 20.4136 27.4207 20.3035 27.5984 20.1997C27.6261 20.1835 27.6536 20.1674 27.6807 20.1516C27.8774 20.0371 28.0639 19.9306 28.2153 19.8664C28.5374 19.7187 28.9783 19.6025 29.4994 19.666C30.0228 19.7298 30.6145 19.9734 31.2378 20.5262C31.2398 20.528 31.2418 20.5299 31.2438 20.5318C31.2968 20.5841 31.311 20.6492 31.3121 20.6989C31.3132 20.7478 31.3022 20.7956 31.2893 20.8362C31.2632 20.9179 31.2172 21.0052 31.1726 21.0802C31.127 21.1569 31.0779 21.2288 31.0406 21.2809C31.0219 21.3072 31.0059 21.3287 30.9945 21.3439C30.9888 21.3515 30.9842 21.3575 30.981 21.3617C30.9794 21.3637 30.9782 21.3654 30.9773 21.3665L30.9762 21.3679L30.9758 21.3684L30.9758 21.3685C30.9758 21.3685 30.9757 21.3685 30.8517 21.2745L30.9757 21.3685C30.9483 21.4037 30.9068 21.4255 30.8619 21.4284C30.8276 21.4306 30.7939 21.4216 30.7657 21.4033C30.7619 21.4022 30.7563 21.4007 30.7484 21.3988C30.7341 21.3954 30.717 21.3917 30.6948 21.3868L30.6943 21.3867C30.6726 21.382 30.6473 21.3765 30.6194 21.37C30.507 21.3436 30.3539 21.3006 30.1787 21.2143C29.8686 21.0616 29.6182 20.9566 29.1793 20.9922C28.4223 21.0819 27.9157 21.2328 27.4657 21.3668C27.3284 21.4077 27.1964 21.447 27.0642 21.4826C26.4899 21.6369 25.9412 21.7082 25.0288 21.5038C24.5394 21.3941 24.1534 21.2916 23.8164 21.202C22.9185 20.9635 22.3677 20.8172 21.1317 20.8738L21.1172 20.5657C22.4047 20.5068 23.0068 20.6668 23.9232 20.9103C24.2571 20.999 24.6326 21.0988 25.0982 21.2031C25.9544 21.3949 26.4507 21.3278 26.9818 21.185C27.1043 21.1521 27.2301 21.1146 27.3634 21.0749C27.8167 20.9398 28.3564 20.7789 29.1448 20.6857C29.1467 20.6855 29.1486 20.6853 29.1505 20.6851C29.6744 20.642 29.9864 20.7749 30.3186 20.9384L30.3186 20.9385C30.4651 21.0106 30.5933 21.0468 30.692 21.07C30.7169 21.0758 30.7399 21.0809 30.7617 21.0856L30.7645 21.0862C30.7739 21.0882 30.7834 21.0903 30.7926 21.0923C30.8256 21.0457 30.8659 20.986 30.9026 20.9242C30.9434 20.8557 30.9753 20.792 30.9907 20.7437C30.9928 20.7373 30.9944 20.7316 30.9956 20.7266C30.426 20.231 29.9038 20.026 29.4609 19.972C29.0085 19.9169 28.6261 20.0178 28.3454 20.1469C28.3439 20.1476 28.3424 20.1482 28.3408 20.1489C28.2112 20.2036 28.0418 20.2996 27.84 20.4171C27.8134 20.4326 27.7863 20.4484 27.7587 20.4645C27.5813 20.5681 27.3861 20.6821 27.1871 20.7867C26.9573 20.9074 26.7161 21.019 26.4826 21.09C26.2523 21.1601 26.0151 21.1951 25.7976 21.1487C25.4255 21.0872 24.5877 20.8977 23.7124 20.64ZM30.7723 21.4054C30.7739 21.406 30.7735 21.406 30.7717 21.4052C30.7719 21.4053 30.7721 21.4053 30.7723 21.4054Z" fill="#4D4D4D"/>
<path d="M21.1952 19.6106C22.4906 20.215 25.0027 20.8625 25.7091 21.0352C26.4156 21.2079 27.5539 20.4308 28.1035 20.0423C29.0849 19.3516 30.3408 19.9128 30.9297 20.6467C31.3221 21.1215 31.4793 21.4237 31.4793 21.5532C31.4793 21.7257 31.0083 21.5532 31.0083 21.5532C30.7335 21.4237 30.4194 21.3806 30.1841 21.2077C29.87 21.0352 29.5559 20.7762 29.0851 20.8192C27.1224 21.0784 26.7299 21.8121 25.0422 21.3804C23.3545 20.9487 22.9226 20.5603 21.1172 20.6895" fill="#DFDFDF"/>
<path d="M14.9072 57.1339C14.8278 57.0538 14.9866 56.9736 14.9072 56.9736C14.3908 56.9736 13.6753 56.5727 13.2776 56.0113C11.5689 53.5256 9.06501 51.8818 4.53453 52.002C-2.26139 52.1623 -4.96388 49.3559 -5.48033 43.9833C-5.75856 41.0565 -6.55345 38.2098 -8.18282 36.606L-9.13672 37.2075C-7.30872 38.8112 -6.71246 41.4173 -6.31502 44.9857C-5.67915 50.3582 -1.3871 52.8441 3.62043 52.9242C8.82658 53.0044 10.6944 54.087 12.6416 56.7333C13.2775 57.5752 13.9929 57.8559 14.5492 57.9762L14.9072 57.1339Z" fill="#4D4D4D"/>
<path opacity="0.4" d="M33.3992 31.3894C33.5132 31.9921 33.8173 33.1576 34.4255 33.7201C34.6919 34.0014 34.7298 34.0817 34.5017 34.0817C34.2734 34.0817 32.6007 34.0014 32.6007 34.0014L32.1445 33.1576L33.3992 31.3894Z" fill="#4D4D4D"/>
</g>
<defs>
<clipPath id="clip0_96_2793">
<rect x="0.5" width="48" height="48" rx="24" fill="white"/>
</clipPath>
</defs>
</svg>
