<svg width="49" height="48" viewBox="0 0 49 48" fill="none" xmlns="http://www.w3.org/2000/svg">
<path fill-rule="evenodd" clip-rule="evenodd" d="M48.5 0H0.5V48H48.5V0ZM44.5 36.8009C44.5 40.9397 40.5269 42.9156 36.4139 42.9156C31.9372 42.9156 28.5797 40.5391 27.9641 36.6407L31.9372 36.0799C32.4968 38.2962 34.4274 39.5245 36.6657 39.5245C38.5404 39.5245 40.4989 38.67 40.4989 37.0679C40.4989 36.2935 40.1072 35.5993 38.5404 35.1453L33.3082 33.6767C31.7414 33.2495 28.7476 32.3149 28.7476 28.6568C28.7476 24.785 32.1331 22.8892 36.274 22.9159C40.443 22.9693 43.3528 24.9452 44.3321 28.55L40.2191 29.2175C39.7715 27.3484 38.0367 26.3604 36.2181 26.307C34.4274 26.2536 32.7486 27.1081 32.7486 28.4699C32.7486 29.7249 34.1476 30.2055 35.4347 30.5259L38.9321 31.4338C41.0026 31.9678 44.5 32.9291 44.5 36.8009ZM23.9436 40.2187C22.7964 42.1145 20.8938 42.9156 18.6835 42.9156C15.4658 42.9156 13.3674 41.2334 12.5 38.5632L16.2493 37.7087C16.4171 38.6967 17.4803 39.5245 18.5156 39.5245C19.2151 39.5245 20.1664 39.1773 20.5301 38.3496C20.7539 37.8422 20.7539 37.0946 20.7539 36.1066V23.2897H24.6151V36.1066C24.6151 36.321 24.6166 36.5238 24.6181 36.7169L24.6181 36.7174C24.629 38.1831 24.6358 39.0863 23.9436 40.2187Z" fill="#4D4D4D"/>
</svg>
