<svg width="49" height="23" viewBox="0 0 49 23" fill="none" xmlns="http://www.w3.org/2000/svg">
<path fill-rule="evenodd" clip-rule="evenodd" d="M46.7099 9.61986C46.4813 9.12424 46.3709 8.53782 46.3472 7.98573C46.2886 6.62707 46.3385 5.26345 46.2771 3.90479C46.2223 2.68806 45.7888 1.59152 44.6223 0.964273C43.5952 0.412186 42.4048 0.357245 41.2619 0.344272V2.51561C41.6429 2.52858 41.5491 2.54041 41.6421 2.54537C43.177 2.62091 43.6912 3.10852 43.7107 4.63353C43.7251 5.76746 43.7152 6.90216 43.7335 8.03571C43.756 9.41116 43.961 10.724 45.217 11.5924C45.2383 11.6073 45.2364 11.6619 45.2486 11.7252C44.6093 12.18 44.1034 12.7656 43.9564 13.565C43.8379 14.2117 43.7709 14.8736 43.7507 15.531C43.7141 16.7207 43.7518 17.913 43.7179 19.1026C43.6912 20.0343 43.2505 20.4716 42.345 20.6791C42.004 20.7577 41.6429 20.7856 41.2619 20.834V23C42.0238 22.9543 42.4112 22.9241 42.9331 22.8676C44.8973 22.6547 46.0032 21.6311 46.2299 19.7226C46.3008 19.1244 46.2928 18.5147 46.3061 17.9103C46.3312 16.7775 46.3183 15.6394 46.4196 14.5135C46.5229 13.3647 47.3571 12.7298 48.5 12.7931V10.5226C47.7381 10.6592 47.036 10.3291 46.7099 9.61986ZM10.9053 14.2491C10.905 9.84268 10.7857 5.43629 10.7857 1.03028V0.337023C9.64286 0.337023 8.4139 0.325958 7.20819 0.342364C6.71867 0.348851 6.28705 0.390819 5.80171 0.457207C3.94381 0.710549 3.04819 1.58389 2.71905 3.43779C2.62381 3.9727 2.64286 4.52861 2.63486 5.07573C2.62 6.11581 2.64971 7.15626 2.63295 8.19596C2.612 9.5054 1.996 10.5203 0.662667 10.5974C0.615429 10.6 0.880952 10.6546 0.5 10.6874V12.7115C2.02381 12.9511 2.50876 13.5673 2.6101 14.9851C2.6261 15.2109 2.63029 15.4387 2.63257 15.6657C2.64552 16.9324 2.63105 18.201 2.68819 19.4655C2.7419 20.6456 3.00362 21.7001 4.11714 22.3194C5.15714 22.8978 6.59524 22.9447 7.35714 22.9749V20.8138C7.35714 20.7955 7.27714 20.7787 7.20286 20.7741C5.5499 20.673 5.17733 20.2236 5.16743 18.5669C5.16095 17.47 5.20781 16.3731 5.19029 15.2762C5.16819 13.8981 4.96705 12.5909 3.72133 11.7187C3.70229 11.7053 3.72095 11.6489 3.71486 11.5726C4.55257 11.0422 4.9979 10.2311 5.11905 9.24748C5.1861 8.70493 5.20857 8.15475 5.2181 7.60724C5.23714 6.47293 5.21695 5.33747 5.24781 4.20392C5.26952 3.40726 5.77733 2.82656 6.42533 2.69608C7.03943 2.57208 7.35714 2.57589 8.5 2.51828V3.30272C8.5 7.23639 8.36019 11.1697 8.38076 15.1033C8.388 16.4505 8.53695 17.7787 9.97886 18.3605C10.7629 18.6768 11.6029 18.7741 12.5034 18.987C12.6539 18.1049 12.703 17.3731 12.8261 16.6489C11.1663 16.172 10.9053 15.9248 10.9053 14.2491ZM21.0669 6.65912C18.2707 5.31992 14.8771 6.49086 13.575 9.29975C12.5945 11.415 12.6295 13.5921 13.4928 15.7371C13.961 16.9 14.807 17.7707 15.9587 18.2827C18.2078 19.2827 20.484 19.0397 22.7518 18.3376C22.8741 18.2995 23.0303 18.0637 23.0154 17.9385C22.9381 17.3048 22.8097 16.6772 22.695 16.0228C22.1552 16.1591 21.7042 16.2983 21.2432 16.3849C20.0253 16.6142 18.8048 16.6138 17.6196 16.1419C16.4493 15.6764 15.6634 14.3372 15.8589 13.1926H23.8101C23.9072 12.048 23.8688 10.4741 23.3823 9.1727C22.948 8.00938 22.1983 7.20129 21.0669 6.65912ZM21.0501 11.2853H15.825C15.8276 9.75912 17.0684 8.3894 18.6962 8.42068C20.1259 8.44815 21.1149 9.75912 21.0501 11.2853ZM42.4246 15.9702C42.612 14.0419 42.0307 12.9568 40.3164 12.1189C39.7084 11.8217 39.063 11.6016 38.4436 11.3261C37.98 11.1201 37.5133 10.9114 37.0798 10.6504C36.6577 10.3967 36.481 9.97545 36.5434 9.48212C36.6048 8.9949 36.9175 8.67364 37.3693 8.58207C37.9168 8.47066 38.4905 8.37528 39.041 8.4203C39.8189 8.48402 40.5861 8.68356 41.3888 8.83046L41.8962 6.61066C40.8101 6.44508 39.7975 6.23103 38.7743 6.15015C37.6364 6.06048 36.5282 6.24973 35.4867 6.78732C33.2859 7.92316 33.2455 11.41 35.268 12.5547C35.8722 12.8965 36.5187 13.1636 37.1472 13.4627C37.809 13.7782 38.4947 14.0526 39.1278 14.4181C39.6086 14.6955 39.7804 15.1796 39.6516 15.7439C39.5324 16.2686 39.1358 16.5024 38.6699 16.5471C37.9613 16.6146 37.2345 16.6795 36.5331 16.5959C35.6886 16.4952 34.8619 16.2384 33.9968 16.0423L33.5556 18.2514C35.5872 19.0153 37.5975 19.1404 39.6272 18.6898C41.3259 18.3128 42.2935 17.3178 42.4246 15.9702ZM31.5998 12.3639C30.8535 11.9675 30.0509 11.6783 29.2806 11.325C28.8025 11.1056 28.2962 10.9152 27.8749 10.6111C27.0646 10.0262 27.2154 8.90485 28.159 8.60497C28.7004 8.43251 29.3126 8.3791 29.8813 8.42183C30.6562 8.4802 31.4208 8.68089 32.2288 8.8274L32.708 6.71139C32.2977 6.5996 31.9263 6.47789 31.5457 6.39776C30.033 6.0788 28.5122 5.95518 27.0223 6.47979C25.7423 6.93077 24.8543 7.77397 24.6787 9.19254C24.4821 10.7767 25.0067 12.0274 26.4676 12.7798C27.0524 13.0812 27.679 13.2998 28.276 13.5791C28.8718 13.8576 29.4802 14.1235 30.0337 14.473C30.457 14.7401 30.6238 15.1922 30.5046 15.7149C30.3861 16.2331 30.009 16.494 29.5396 16.5425C28.831 16.6154 28.1038 16.6829 27.4021 16.6009C26.5541 16.5017 25.7248 16.2441 24.8444 16.0457C24.7145 16.6612 24.5621 17.2812 24.4672 17.9095C24.4467 18.0461 24.5987 18.3086 24.7267 18.3533C26.7777 19.0652 28.8653 19.1675 30.9514 18.5521C32.1971 18.185 33.0684 17.388 33.244 16.0251C33.4432 14.478 33.0749 13.1468 31.5998 12.3639Z" fill="#4D4D4D"/>
</svg>
