<svg width="48" height="30" viewBox="0 0 48 30" fill="none" xmlns="http://www.w3.org/2000/svg">
<path fill-rule="evenodd" clip-rule="evenodd" d="M37.8065 12.5007C37.8065 14.3094 36.3305 15.7756 34.5097 15.7756C32.6889 15.7756 31.2129 14.3094 31.2129 12.5007C31.2129 10.692 32.6889 9.22583 34.5097 9.22583C36.3305 9.22583 37.8065 10.692 37.8065 12.5007ZM34.5085 11.0493C34.5085 11.522 34.1227 11.9052 33.6468 11.9052C33.1709 11.9052 32.7852 11.522 32.7852 11.0493C32.7852 10.5766 33.1709 10.1934 33.6468 10.1934C34.1227 10.1934 34.5085 10.5766 34.5085 11.0493Z" fill="#4D4D4D"/>
<path d="M24.3536 20.1301C24.9905 20.1301 26.1144 20.5767 27.126 21.2837C26.1519 20.2045 24.9905 19.4602 24.3536 19.4602C23.6793 19.4602 22.2557 20.2789 21.2441 21.4698C22.2931 20.6511 23.6418 20.1301 24.3536 20.1301Z" fill="#4D4D4D"/>
<path opacity="0.5" fill-rule="evenodd" clip-rule="evenodd" d="M14.5779 1.6342C14.5779 1.6342 10.2321 5.24403 8.95831 9.41208C8.31874 11.5049 8.13254 13.8229 7.98236 15.6924C7.83344 17.5462 7.71995 18.959 7.23498 19.274C6.24579 19.9114 5.16121 17.3838 4.43052 15.681C4.13729 14.9976 3.90106 14.4471 3.75085 14.2872C3.38631 13.8922 2.64797 13.2277 1.92161 12.5741L1.92159 12.5741C1.00574 11.7499 0.108948 10.9429 0.00448274 10.7146C-0.182836 10.3052 5.54911 4.09037 8.05918 2.86228C11.0937 1.44812 14.8401 1.33648 14.5779 1.6342ZM39.0417 9.41208C37.7679 5.24403 33.4221 1.6342 33.4221 1.6342C33.1599 1.33648 36.9063 1.44812 39.9408 2.86228C42.4509 4.09037 48.1828 10.3052 47.9955 10.7146C47.8911 10.9428 46.9947 11.7495 46.0791 12.5735L46.0789 12.5736L46.0788 12.5737L46.0785 12.574L46.0784 12.5741L46.0782 12.5743L46.0781 12.5743L46.0779 12.5745L46.0778 12.5746C45.3516 13.2281 44.6136 13.8923 44.2491 14.2872C44.0989 14.4471 43.8627 14.9976 43.5695 15.681C42.8388 17.3838 41.7542 19.9114 40.765 19.274C40.28 18.959 40.1666 17.5462 40.0176 15.6924L40.0176 15.6923C39.8675 13.8228 39.6813 11.5049 39.0417 9.41208ZM32.9351 17.4505C31.6503 15.8817 29.8108 14.3889 27.403 13.6643C27.1506 12.8669 25.9586 12.0171 24.281 12.0171C22.6447 12.0456 21.4704 12.8608 21.1793 13.6253C18.7063 14.3343 16.8228 15.853 15.5145 17.4505C13.7753 19.5582 13.7801 20.4789 13.7896 22.3274C13.7904 22.4698 13.7911 22.6178 13.7911 22.7722C13.7911 28.6972 15.3846 28.8467 16.9554 28.9941C17.4564 29.0411 17.9552 29.0879 18.3992 29.322C19.9052 30.07 21.4597 30.0241 23.0432 29.9774H23.0433H23.0434H23.0434H23.0435C23.4294 29.966 23.817 29.9546 24.2061 29.9546H24.2435C24.6098 29.9546 24.9725 29.9632 25.3319 29.9716H25.332H25.332C26.9574 30.0099 28.5164 30.0466 30.0504 29.2847C30.4956 29.0591 30.9959 29.0239 31.4984 28.9886C33.0678 28.8782 34.6584 28.7663 34.6584 22.8466C34.6602 22.7469 34.6621 22.6498 34.6639 22.5549L34.6639 22.5528C34.7021 20.5953 34.7211 19.615 32.9351 17.4505ZM24.7917 14.9813C24.4946 15.0403 24.2822 15.0825 24.2822 15.1432C24.3033 15.2268 24.3125 15.3574 24.3232 15.5085C24.3315 15.6265 24.3407 15.757 24.3571 15.8875C24.3571 16.0474 24.3594 16.2632 24.3619 16.5094V16.5096V16.5098V16.5098C24.3711 17.4039 24.3843 18.698 24.3107 19.1636C25.9602 19.2207 28.4407 21.3946 28.4407 24.112V24.2608C28.4032 21.6186 25.2563 19.4601 24.2448 19.4601C23.2332 19.4601 20.0863 21.6186 20.0488 24.2608V24.112C20.0488 21.4411 22.5111 19.2379 24.1606 19.1643C24.0574 18.6038 24.0574 16.709 24.0574 15.8875C24.0574 15.7301 24.0711 15.5319 24.082 15.375L24.082 15.3749L24.082 15.3745C24.0891 15.2721 24.0949 15.1873 24.0949 15.1432C24.0949 15.0483 22.5761 14.6569 22.1231 14.5423C22.5017 14.6354 23.6157 14.8942 23.8327 14.7711C24.0574 14.6222 24.1698 14.1757 24.1698 14.1757C24.1698 14.1757 24.2448 14.6222 24.5445 14.7711C24.8442 14.9572 26.2303 14.5106 26.2303 14.5106C25.8313 14.7748 25.2224 14.8958 24.7917 14.9813ZM21.9969 14.5106C21.9969 14.5106 22.0439 14.5228 22.1231 14.5423C22.0436 14.5222 21.9969 14.5106 21.9969 14.5106Z" fill="#4D4D4D"/>
<path fill-rule="evenodd" clip-rule="evenodd" d="M17.162 12.501C17.162 14.3096 15.6859 15.7759 13.8652 15.7759C12.0444 15.7759 10.5684 14.3096 10.5684 12.501C10.5684 10.6923 12.0444 9.22607 13.8652 9.22607C15.6859 9.22607 17.162 10.6923 17.162 12.501ZM15.5884 11.0495C15.5884 11.5222 15.2026 11.9055 14.7267 11.9055C14.2508 11.9055 13.865 11.5222 13.865 11.0495C13.865 10.5768 14.2508 10.1936 14.7267 10.1936C15.2026 10.1936 15.5884 10.5768 15.5884 11.0495Z" fill="#4D4D4D"/>
<path d="M25.065 14.3075C25.2253 14.2664 25.2923 13.9911 25.2148 13.6926C25.1373 13.3941 24.9445 13.1854 24.7842 13.2265C24.624 13.2675 24.5569 13.5428 24.6344 13.8413C24.7119 14.1399 24.9047 14.3486 25.065 14.3075Z" fill="#4D4D4D"/>
<path d="M23.1393 14.302C23.2974 14.3507 23.5001 14.1515 23.5921 13.857C23.684 13.5626 23.6304 13.2844 23.4723 13.2356C23.3142 13.1869 23.1115 13.3861 23.0196 13.6806C22.9276 13.975 22.9812 14.2532 23.1393 14.302Z" fill="#4D4D4D"/>
<path d="M25.2212 12.5382C25.2212 12.5009 24.3595 12.9103 24.1347 12.9475C23.9099 12.9103 23.0483 12.5009 23.0483 12.5382H25.2212Z" fill="#4D4D4D"/>
<path d="M39.8746 19.6472L39.8311 19.8322C39.8179 19.8032 39.8047 19.7697 39.7916 19.7321C39.7779 19.7792 39.7637 19.8269 39.7491 19.8747C39.7028 20.1352 39.603 20.391 39.4697 20.6433C39.4435 20.7027 39.4165 20.7603 39.3888 20.8158C39.6256 20.4511 39.8076 20.0768 39.8686 19.6834C39.8706 19.6713 39.8726 19.6592 39.8746 19.6472Z" fill="#4D4D4D"/>
<path d="M37.9518 22.7727C37.6889 23.1669 37.488 23.5618 37.4334 23.963C37.3599 24.5834 37.1994 25.1511 36.9422 25.6667C37.282 25.0955 37.4916 24.4539 37.5833 23.7398C37.6273 23.4072 37.7646 23.0869 37.9518 22.7727Z" fill="#4D4D4D"/>
<path d="M24.2836 29.5822H24.2836L24.2836 29.5825L24.2836 29.5822Z" fill="#4D4D4D"/>
<path d="M8.3785 19.9264C8.37208 19.8951 8.36641 19.8637 8.36154 19.8322C8.36154 19.8322 8.37859 19.8527 8.41095 19.8906C8.40041 19.8564 8.39013 19.8223 8.38008 19.7885C8.37391 19.804 8.36773 19.8186 8.36154 19.8322L8.31814 19.6477C8.32011 19.6596 8.3221 19.6715 8.32409 19.6834C8.33675 19.7651 8.3551 19.8461 8.3785 19.9264Z" fill="#4D4D4D"/>
<path d="M39.5689 5.50454C40.0459 6.28637 40.1281 7.1587 40.1442 8.11193L38.4963 4.14406C38.9272 4.56401 39.2823 5.01821 39.5689 5.50454Z" fill="#4D4D4D"/>
<path d="M37.1924 3.12566C36.2455 2.52822 35.0706 2.03089 33.6343 1.64344L37.1924 3.12566Z" fill="#4D4D4D"/>
<path fill-rule="evenodd" clip-rule="evenodd" d="M33.6154 1.63837C33.7457 1.80162 37.6681 6.72758 38.2576 8.63058C38.3526 8.94328 38.4439 9.4094 38.5323 9.97701C38.4429 9.91583 38.3559 9.85229 38.2712 9.78675C37.9245 9.14967 37.4807 8.7132 36.9369 8.39554C36.1783 7.36647 35.8225 6.39769 35.8225 6.39769C35.776 7.01803 35.8484 7.54124 35.9992 7.98225C35.6672 7.87204 35.3087 7.78167 34.9233 7.70021C33.1625 7.29085 29.6409 6.95592 30.053 8.25843C30.0619 8.28858 30.0713 8.3206 30.0812 8.35437C30.4505 9.61275 31.5284 13.2856 29.2663 12.0171C29.2663 12.0171 29.534 12.1705 29.8751 12.6222C30.7283 13.2346 32.8052 14.7957 34.0617 16.334C34.298 16.6233 34.4988 16.8782 34.6695 17.1025C35.5026 17.0034 36.5191 16.711 37.3959 15.9619C38.3274 15.1688 38.7994 14.0105 38.8895 12.819C38.9494 13.3664 39.0085 13.9291 39.067 14.487L39.0672 14.4885L39.0673 14.4891L39.0673 14.4893L39.0673 14.4894C39.1821 15.5837 39.295 16.6592 39.4085 17.5636C39.4101 17.6616 39.4135 17.7724 39.419 17.8971C39.4899 19.5182 39.2622 20.2494 39.0847 20.5682C38.3627 21.3197 37.1671 22.4511 36.0472 22.9955C35.298 23.3676 35.0357 23.4793 35.0357 22.9955C35.0357 22.5117 34.9233 20.6509 34.5112 19.1996C34.5098 19.1946 34.5084 19.1896 34.507 19.1847L34.4738 19.1996C34.4738 19.1996 32.8254 16.1107 30.8023 14.9571C30.5728 14.8286 30.366 14.7023 30.1798 14.5795C30.1443 14.5598 30.1087 14.54 30.073 14.5202C29.311 14.0969 28.514 13.6542 27.9176 13.1336L27.8998 13.1177C26.8805 12.2137 25.7883 11.245 24.2462 11.1654L24.2462 11.1612C24.2274 11.1616 24.2086 11.1622 24.19 11.1629C24.1713 11.1622 24.1526 11.1616 24.1338 11.1612L24.1338 11.1654C22.5792 11.2454 21.411 12.225 20.3499 13.1336C19.7511 13.6563 18.9326 14.1005 18.1497 14.5252L18.1497 14.5253C17.8374 14.6947 17.5309 14.861 17.2462 15.0281C17.2475 15.0246 17.2487 15.0211 17.25 15.0176C15.2742 16.2149 13.6814 19.1996 13.6814 19.1996L13.6482 19.1847C13.6468 19.1896 13.6453 19.1946 13.6439 19.1996C13.2318 20.6509 13.082 22.5117 13.082 22.9955C13.082 23.0266 13.0823 23.0559 13.0826 23.0834L13.0826 23.0835C13.0868 23.4817 13.0868 23.4829 12.0704 22.9955C11.0649 22.5279 9.99822 21.5627 9.2682 20.8208C9.26344 20.8073 9.26067 20.7998 9.26067 20.7998C9.26067 20.7998 8.63282 20.4696 8.73389 17.9516C8.86445 16.9753 8.99364 15.7443 9.12542 14.4885C9.18401 13.9302 9.24311 13.367 9.30307 12.8191C9.39325 14.0106 9.86521 15.1688 10.7967 15.9619C11.6615 16.7007 12.6622 16.9953 13.4889 17.0984C13.6589 16.875 13.8587 16.6215 14.0935 16.334C15.3931 14.7429 17.5703 13.1276 18.3634 12.5625C18.6823 12.1569 18.9263 12.0171 18.9263 12.0171C16.6642 13.2856 17.7421 9.61274 18.1114 8.35437C18.1213 8.3206 18.1307 8.28858 18.1396 8.25843C18.5142 6.95592 15.0301 7.29085 13.2693 7.70021C12.8005 7.79928 12.3716 7.9089 11.9818 8.05083C12.1489 7.59574 12.2318 7.0505 12.1828 6.39769C12.1828 6.39769 11.7741 7.51048 10.8989 8.61764C10.5929 8.84666 10.3244 9.12912 10.0926 9.48601C9.96293 9.60349 9.82694 9.71694 9.68451 9.82467C9.76535 9.32587 9.84863 8.91484 9.93502 8.63058C10.4827 6.86257 13.9073 2.48523 14.4948 1.74222C16.9497 1.0406 20.1696 0.666626 24.2836 0.666626C28.1961 0.666626 31.2573 1.00485 33.6154 1.63837ZM12.6428 18.3561C9.97604 18.5031 9.11081 15.9247 9.11081 15.9247C9.11081 15.9247 9.67277 17.8226 10.7967 18.4553H10.8341C11.3776 18.6776 12.0097 18.6492 12.5559 18.5436C12.5742 18.4967 12.6016 18.4353 12.6428 18.3561ZM35.5082 18.348C35.5446 18.4174 35.5705 18.4735 35.5891 18.5184C36.1616 18.6435 36.8488 18.6944 37.4334 18.4553C38.9319 17.8226 39.1567 15.9247 39.1567 15.9247C39.1567 15.9247 38.2664 18.5781 35.5082 18.348ZM15.8917 6.21162C16.8658 6.02555 18.4767 5.98833 19.7505 6.39769C20.8564 6.78091 20.5852 7.86565 20.4155 8.54425C20.338 8.85416 20.2817 9.07937 20.3874 9.11437C20.4804 9.14516 20.5819 9.0514 20.7431 8.90256C21.1663 8.51176 22.0007 7.74127 24.1712 7.84907C26.1972 7.94845 27.0208 8.57861 27.4672 8.92011C27.6894 9.09012 27.8181 9.18859 27.9551 9.11437C28.0467 9.06474 28.0772 8.85334 28.119 8.56351C28.2654 7.54932 28.5505 5.57487 32.0761 6.21162C32.0761 6.21162 27.3182 4.94632 27.543 8.37008C27.543 8.37008 24.8085 6.28637 20.9877 8.14636C21.037 8.10432 21.9576 4.95476 15.8917 6.21162ZM32.4882 6.21162C32.5321 6.21162 32.5631 6.22439 32.5888 6.23497C32.607 6.24245 32.6225 6.24884 32.638 6.24884C32.6755 6.24884 32.6006 6.21162 32.4882 6.21162ZM24.2834 9.15264C27.2243 9.24534 29.4162 11.5333 29.4162 11.5333C26.8312 9.74702 24.2836 9.78423 24.3211 9.78423C24.3144 9.78423 24.3072 9.78422 24.2994 9.78421L24.2986 9.78421C23.8651 9.78348 21.6886 9.77984 19.1511 11.5333C19.1511 11.5333 21.3058 9.24534 24.2834 9.15264ZM24.3211 9.15158C24.3085 9.1519 24.2959 9.15225 24.2834 9.15264L24.2717 9.15228C24.2632 9.15203 24.2547 9.1518 24.2462 9.15158H24.3211ZM24.2514 5.09665C25.7286 5.16203 26.8312 6.69541 26.8312 6.69541C25.5199 5.46733 24.2836 5.50454 24.2836 5.50454C24.2836 5.50454 22.9724 5.46733 21.6986 6.69541C21.6986 6.69541 23.132 5.16203 24.2514 5.09665ZM24.2514 5.09665C24.2372 5.09603 24.223 5.09553 24.2087 5.09518H24.2836C24.2729 5.09553 24.2622 5.09603 24.2514 5.09665Z" fill="#4D4D4D"/>
<path d="M13.8363 1.94422C13.0861 2.19098 12.4149 2.4717 11.8185 2.78479L13.8363 1.94422Z" fill="#4D4D4D"/>
<path d="M9.55761 4.4781L8.14062 7.88991C8.21475 7.04836 8.36376 6.27038 8.77366 5.54176C8.99135 5.16783 9.25187 4.81299 9.55761 4.4781Z" fill="#4D4D4D"/>
<path d="M9.63604 10.1359C9.61332 10.2874 9.59078 10.4454 9.56841 10.6089C9.58956 10.5443 9.61186 10.4802 9.63529 10.4169C9.67727 10.3034 9.72129 10.1949 9.76734 10.0912C9.72246 10.1072 9.67863 10.1221 9.63604 10.1359Z" fill="#4D4D4D"/>
<path d="M38.5654 10.195C38.5296 10.1851 38.4925 10.1743 38.4542 10.1626C38.4898 10.2445 38.5242 10.3292 38.5573 10.4169C38.5808 10.4803 38.6031 10.5443 38.6242 10.609C38.6047 10.4666 38.5851 10.3284 38.5654 10.195Z" fill="#4D4D4D"/>
<path d="M24.055 15.1433C24.055 15.1433 23.7927 18.7531 23.2682 19.4602L24.2423 19.2369L24.055 15.1433Z" fill="#4D4D4D"/>
<path d="M24.3172 15.1433C24.3172 15.1433 24.5795 18.7531 25.104 19.4602L24.1299 19.2369L24.3172 15.1433Z" fill="#4D4D4D"/>
<path d="M24.0924 26.717C22.6688 26.717 21.2827 26.2705 20.0089 25.9355C19.7467 25.8611 19.4844 26.0472 19.2222 25.9727C16.8619 25.2284 14.9513 23.9631 13.7899 22.3629V22.7351C13.7899 30.5501 16.5622 28.3545 18.398 29.2848C20.2711 30.2152 22.2193 29.9175 24.2048 29.9175H24.2423C26.2653 29.9175 28.176 30.178 30.0492 29.2476C31.8849 28.3173 34.6572 30.5874 34.6572 22.7723C34.6572 22.4746 34.6572 22.1768 34.6947 21.9163C33.6082 23.6654 31.6226 25.0424 29.15 25.8611C28.9253 25.9355 28.4008 25.7495 28.176 25.7867C26.8273 26.2332 25.6285 26.717 24.0924 26.717Z" fill="#4D4D4D"/>
<path d="M20.5334 22.5118C20.5334 22.5118 19.5968 25.3029 20.2337 26.531L19.372 26.1588C19.372 26.1588 20.0089 23.3305 20.5334 22.5118ZM27.9512 22.5118C27.9512 22.5118 28.8878 25.3029 28.2509 26.531L29.1126 26.1588C29.1126 26.1588 28.4382 23.3305 27.9512 22.5118Z" fill="#4D4D4D"/>
<path d="M37.1298 3.86719C37.1298 3.86719 42.2623 10.3798 42.1874 18.4926L44.2479 14.3245C44.2105 14.3245 42.4122 9.00282 37.1298 3.86719Z" fill="#4D4D4D"/>
<path d="M10.8678 3.86719C10.8678 3.86719 5.73522 10.3798 5.81015 18.4926L3.78711 14.3245C3.78711 14.3245 5.58537 9.00282 10.8678 3.86719Z" fill="#4D4D4D"/>
<path d="M20.3461 17.4134C20.5116 17.4134 20.6458 17.2801 20.6458 17.1156C20.6458 16.9512 20.5116 16.8179 20.3461 16.8179C20.1805 16.8179 20.0464 16.9512 20.0464 17.1156C20.0464 17.2801 20.1805 17.4134 20.3461 17.4134Z" fill="#4D4D4D"/>
<path d="M18.6227 19.1997C18.7883 19.1997 18.9225 19.0664 18.9225 18.9019C18.9225 18.7375 18.7883 18.6042 18.6227 18.6042C18.4572 18.6042 18.323 18.7375 18.323 18.9019C18.323 19.0664 18.4572 19.1997 18.6227 19.1997Z" fill="#4D4D4D"/>
<path d="M18.0608 17.4134C18.2263 17.4134 18.3605 17.2801 18.3605 17.1156C18.3605 16.9512 18.2263 16.8179 18.0608 16.8179C17.8953 16.8179 17.7611 16.9512 17.7611 17.1156C17.7611 17.2801 17.8953 17.4134 18.0608 17.4134Z" fill="#4D4D4D"/>
<path d="M27.6515 17.4134C27.817 17.4134 27.9512 17.2801 27.9512 17.1156C27.9512 16.9512 27.817 16.8179 27.6515 16.8179C27.486 16.8179 27.3518 16.9512 27.3518 17.1156C27.3518 17.2801 27.486 17.4134 27.6515 17.4134Z" fill="#4D4D4D"/>
<path d="M29.3748 19.1997C29.5403 19.1997 29.6745 19.0664 29.6745 18.9019C29.6745 18.7375 29.5403 18.6042 29.3748 18.6042C29.2093 18.6042 29.0751 18.7375 29.0751 18.9019C29.0751 19.0664 29.2093 19.1997 29.3748 19.1997Z" fill="#4D4D4D"/>
<path d="M29.9368 17.4134C30.1023 17.4134 30.2365 17.2801 30.2365 17.1156C30.2365 16.9512 30.1023 16.8179 29.9368 16.8179C29.7713 16.8179 29.6371 16.9512 29.6371 17.1156C29.6371 17.2801 29.7713 17.4134 29.9368 17.4134Z" fill="#4D4D4D"/>
</svg>
